<?xml version="1.0" encoding="UTF-8"?>
<!DOCTYPE svg PUBLIC "-//W3C//DTD SVG 1.1//EN" "http://www.w3.org/Graphics/SVG/1.1/DTD/svg11.dtd">
<svg xmlns="http://www.w3.org/2000/svg" version="1.1" width="282px" height="456px" style="shape-rendering:geometricPrecision; text-rendering:geometricPrecision; image-rendering:optimizeQuality; fill-rule:evenodd; clip-rule:evenodd" xmlns:xlink="http://www.w3.org/1999/xlink">
<g><path style="opacity:1" fill="#fefefe" d="M -0.5,-0.5 C 49.5,-0.5 99.5,-0.5 149.5,-0.5C 147.878,2.97858 146.711,6.64525 146,10.5C 145.333,17.8333 145.333,25.1667 146,32.5C 149.546,51.1062 152.879,69.7729 156,88.5C 161.481,130.911 158.148,172.578 146,213.5C 140.85,227.761 135.85,242.094 131,256.5C 125.359,269.091 119.525,281.591 113.5,294C 110.394,292.935 107.727,290.935 105.5,288C 99.1,285.938 93.4333,282.604 88.5,278C 86.5,277.333 84.5,276.667 82.5,276C 79.9709,272.306 76.9709,269.14 73.5,266.5C 75.9106,262.682 78.0772,258.682 80,254.5C 82.2515,246.635 80.0849,240.468 73.5,236C 66.8721,235.228 61.3721,237.395 57,242.5C 53.2059,237.863 48.7059,234.197 43.5,231.5C 41.1934,229.953 38.5267,229.287 35.5,229.5C 33.5,229.667 31.5,229.833 29.5,230C 28.944,230.383 28.6107,230.883 28.5,231.5C 25.5222,232.478 23.5222,234.478 22.5,237.5C 21.0937,237.973 20.427,238.973 20.5,240.5C 19.3516,244.981 19.1849,249.648 20,254.5C 20.2784,255.416 20.7784,256.082 21.5,256.5C 26.0315,264.703 32.0315,271.703 39.5,277.5C 40.5846,279.587 42.2512,280.92 44.5,281.5C 46.6878,283.755 49.3545,284.589 52.5,284C 53.9984,281.336 55.9984,279.17 58.5,277.5C 63.2969,282.798 68.2969,287.965 73.5,293C 83.3333,298.833 93.1667,304.667 103,310.5C 103.743,313.783 103.076,316.783 101,319.5C 92.9135,333.322 84.7468,346.989 76.5,360.5C 51.2624,354.084 25.5957,351.084 -0.5,351.5C -0.5,234.167 -0.5,116.833 -0.5,-0.5 Z"/></g>
<g><path style="opacity:1" fill="#fefffe" d="M 164.5,-0.5 C 203.5,-0.5 242.5,-0.5 281.5,-0.5C 281.5,142.5 281.5,285.5 281.5,428.5C 275.375,411.309 268.542,394.309 261,377.5C 254.201,365.716 247.034,354.216 239.5,343C 261.012,274.455 263.179,205.289 246,135.5C 239.912,113.327 230.579,92.6608 218,73.5C 206.97,62.8041 196.303,51.8041 186,40.5C 179.308,31.6522 176.641,21.6522 178,10.5C 174.181,5.83292 169.681,2.16625 164.5,-0.5 Z"/></g>
<g><path style="opacity:1" fill="#0e3627" d="M 149.5,-0.5 C 154.5,-0.5 159.5,-0.5 164.5,-0.5C 169.681,2.16625 174.181,5.83292 178,10.5C 176.641,21.6522 179.308,31.6522 186,40.5C 196.303,51.8041 206.97,62.8041 218,73.5C 230.579,92.6608 239.912,113.327 246,135.5C 263.179,205.289 261.012,274.455 239.5,343C 247.034,354.216 254.201,365.716 261,377.5C 268.542,394.309 275.375,411.309 281.5,428.5C 281.5,431.167 281.5,433.833 281.5,436.5C 277.478,438.616 273.145,439.45 268.5,439C 265.108,436.715 263.441,433.548 263.5,429.5C 264.609,429.557 265.609,429.89 266.5,430.5C 265.887,433.969 267.221,435.969 270.5,436.5C 270.263,435.209 270.596,434.209 271.5,433.5C 272.222,433.918 272.722,434.584 273,435.5C 273.49,434.207 273.657,432.873 273.5,431.5C 275.911,431.137 277.411,432.137 278,434.5C 278.885,431.462 278.385,428.795 276.5,426.5C 276.785,423.171 276.118,420.171 274.5,417.5C 273.512,414.919 272.512,412.252 271.5,409.5C 271.245,407.033 270.245,405.033 268.5,403.5C 264.722,393.275 260.389,383.275 255.5,373.5C 252.508,368.193 249.175,363.193 245.5,358.5C 245.573,356.973 244.906,355.973 243.5,355.5C 240.253,351.341 237.253,347.008 234.5,342.5C 235.1,341.1 236.1,340.1 237.5,339.5C 237.294,336.505 237.96,333.838 239.5,331.5C 240.458,329.698 241.125,327.698 241.5,325.5C 241.858,322.311 242.525,319.311 243.5,316.5C 244.924,314.485 245.59,312.152 245.5,309.5C 246.273,305.86 246.94,302.193 247.5,298.5C 249.667,293.17 250.667,287.503 250.5,281.5C 254.024,255.968 255.357,230.301 254.5,204.5C 254.665,200.818 254.499,197.152 254,193.5C 253.722,192.584 253.222,191.918 252.5,191.5C 252.5,191.167 252.5,190.833 252.5,190.5C 252.25,180.874 250.916,171.541 248.5,162.5C 248.483,160.435 248.15,158.435 247.5,156.5C 247.247,152.96 246.581,149.627 245.5,146.5C 245.5,146.167 245.5,145.833 245.5,145.5C 245.59,142.848 244.924,140.515 243.5,138.5C 242.985,136.106 242.319,133.772 241.5,131.5C 241.59,128.848 240.924,126.515 239.5,124.5C 237.498,120.658 236.165,116.492 235.5,112C 232.81,104.788 229.477,97.9544 225.5,91.5C 225.573,89.9731 224.906,88.9731 223.5,88.5C 221.531,83.8996 219.031,79.5663 216,75.5C 203.2,63.5401 191.366,50.8734 180.5,37.5C 180.573,35.9731 179.906,34.9731 178.5,34.5C 177.946,31.2542 176.946,28.2542 175.5,25.5C 175.5,21.5 175.5,17.5 175.5,13.5C 172.43,13.6323 169.43,13.299 166.5,12.5C 163.855,10.6896 160.855,9.68964 157.5,9.5C 155.565,8.19004 153.565,6.8567 151.5,5.5C 150.893,5.62358 150.56,5.95691 150.5,6.5C 149.778,6.91753 149.278,7.5842 149,8.5C 148.237,19.2004 148.404,29.8671 149.5,40.5C 149.763,45.1243 150.763,49.4577 152.5,53.5C 153.376,57.8838 154.376,62.2171 155.5,66.5C 155.336,69.1873 155.503,71.854 156,74.5C 156.278,75.4158 156.778,76.0825 157.5,76.5C 158.021,80.4809 158.354,84.4809 158.5,88.5C 158.646,92.3875 159.313,96.0542 160.5,99.5C 161.774,118.016 161.774,136.683 160.5,155.5C 159.072,161.97 158.072,168.637 157.5,175.5C 157.5,176.5 157.5,177.5 157.5,178.5C 155.217,183.81 153.884,189.476 153.5,195.5C 153.037,198.221 152.371,200.888 151.5,203.5C 150.076,205.515 149.41,207.848 149.5,210.5C 146.692,219.063 144.192,227.73 142,236.5C 138.546,244.405 135.379,252.405 132.5,260.5C 130.277,263.802 128.61,267.468 127.5,271.5C 127.5,271.833 127.5,272.167 127.5,272.5C 126.094,272.973 125.427,273.973 125.5,275.5C 123.104,281.957 120.437,288.29 117.5,294.5C 116.094,294.973 115.427,295.973 115.5,297.5C 113.935,299.509 112.935,301.843 112.5,304.5C 111.094,304.973 110.427,305.973 110.5,307.5C 108.983,310.035 107.65,312.702 106.5,315.5C 104.755,317.033 103.755,319.033 103.5,321.5C 102.662,321.842 102.328,322.508 102.5,323.5C 101.094,323.973 100.427,324.973 100.5,326.5C 98.9925,328.181 97.9925,330.181 97.5,332.5C 96.0937,332.973 95.427,333.973 95.5,335.5C 92.4367,339.907 89.77,344.574 87.5,349.5C 85.7497,350.659 84.7497,352.326 84.5,354.5C 83.5,355.833 82.5,357.167 81.5,358.5C 80.596,359.209 80.2627,360.209 80.5,361.5C 78.901,361.768 77.5676,361.434 76.5,360.5C 84.7468,346.989 92.9135,333.322 101,319.5C 103.076,316.783 103.743,313.783 103,310.5C 93.1667,304.667 83.3333,298.833 73.5,293C 68.2969,287.965 63.2969,282.798 58.5,277.5C 58.8417,276.662 59.5084,276.328 60.5,276.5C 61.6935,277.272 62.6935,278.272 63.5,279.5C 63.9731,280.906 64.9731,281.573 66.5,281.5C 69.9743,284.802 73.641,287.968 77.5,291C 84.7302,295.446 92.0636,299.612 99.5,303.5C 100.903,304.931 102.569,306.098 104.5,307C 105.749,307.74 106.749,307.573 107.5,306.5C 108.426,303.481 109.759,300.648 111.5,298C 98.5186,289.026 85.5186,280.026 72.5,271C 71.6634,269.989 71.33,268.822 71.5,267.5C 72.1667,267.167 72.8333,266.833 73.5,266.5C 76.9709,269.14 79.9709,272.306 82.5,276C 84.5,276.667 86.5,277.333 88.5,278C 93.4333,282.604 99.1,285.938 105.5,288C 107.727,290.935 110.394,292.935 113.5,294C 119.525,281.591 125.359,269.091 131,256.5C 135.85,242.094 140.85,227.761 146,213.5C 158.148,172.578 161.481,130.911 156,88.5C 152.879,69.7729 149.546,51.1062 146,32.5C 145.333,25.1667 145.333,17.8333 146,10.5C 146.711,6.64525 147.878,2.97858 149.5,-0.5 Z"/></g>
<g><path style="opacity:1" fill="#825a35" d="M 153.5,2.5 C 155.628,1.37086 157.961,1.20419 160.5,2C 164.277,3.93538 167.943,6.10205 171.5,8.5C 168.26,9.5584 165.093,9.22507 162,7.5C 159.029,6.02129 156.196,4.35462 153.5,2.5 Z"/></g>
<g><path style="opacity:1" fill="#e7ca1c" d="M 157.5,9.5 C 160.084,11.4725 163.084,12.4725 166.5,12.5C 168.635,14.369 171.302,15.0356 174.5,14.5C 174.185,18.3714 174.518,22.0381 175.5,25.5C 176.946,28.2542 177.946,31.2542 178.5,34.5C 178.427,36.0269 179.094,37.0269 180.5,37.5C 191.366,50.8734 203.2,63.5401 216,75.5C 219.031,79.5663 221.531,83.8996 223.5,88.5C 223.427,90.0269 224.094,91.0269 225.5,91.5C 229.477,97.9544 232.81,104.788 235.5,112C 236.165,116.492 237.498,120.658 239.5,124.5C 239.41,127.152 240.076,129.485 241.5,131.5C 242.319,133.772 242.985,136.106 243.5,138.5C 243.41,141.152 244.076,143.485 245.5,145.5C 245.5,145.833 245.5,146.167 245.5,146.5C 245.336,149.187 245.503,151.854 246,154.5C 246.278,155.416 246.778,156.082 247.5,156.5C 248.15,158.435 248.483,160.435 248.5,162.5C 249.3,172.049 250.634,181.382 252.5,190.5C 252.5,190.833 252.5,191.167 252.5,191.5C 252.77,196.028 253.437,200.361 254.5,204.5C 255.357,230.301 254.024,255.968 250.5,281.5C 248.939,286.94 247.939,292.606 247.5,298.5C 246.94,302.193 246.273,305.86 245.5,309.5C 244.076,311.515 243.41,313.848 243.5,316.5C 242.525,319.311 241.858,322.311 241.5,325.5C 239.692,326.918 239.025,328.918 239.5,331.5C 237.96,333.838 237.294,336.505 237.5,339.5C 234.447,338.287 232.113,336.12 230.5,333C 228.333,332.5 227.5,333.333 228,335.5C 230.4,337.729 232.567,340.063 234.5,342.5C 237.253,347.008 240.253,351.341 243.5,355.5C 243.427,357.027 244.094,358.027 245.5,358.5C 249.175,363.193 252.508,368.193 255.5,373.5C 260.389,383.275 264.722,393.275 268.5,403.5C 268.755,405.967 269.755,407.967 271.5,409.5C 272.512,412.252 273.512,414.919 274.5,417.5C 274.676,420.727 275.343,423.727 276.5,426.5C 278.385,428.795 278.885,431.462 278,434.5C 277.411,432.137 275.911,431.137 273.5,431.5C 273.657,432.873 273.49,434.207 273,435.5C 272.722,434.584 272.222,433.918 271.5,433.5C 270.458,432.209 269.292,432.209 268,433.5C 267.768,432.263 267.268,431.263 266.5,430.5C 264.518,424.526 262.518,418.526 260.5,412.5C 260.573,410.973 259.906,409.973 258.5,409.5C 257.892,406.673 256.892,404.007 255.5,401.5C 255.573,399.973 254.906,398.973 253.5,398.5C 251.228,393.061 248.728,387.728 246,382.5C 238.363,369.719 230.196,357.386 221.5,345.5C 221.179,343.952 220.179,343.285 218.5,343.5C 218.232,345.099 218.566,346.432 219.5,347.5C 223.044,351.562 226.044,356.062 228.5,361C 226.884,366.385 224.884,371.551 222.5,376.5C 220.896,377.287 220.229,378.62 220.5,380.5C 215.045,392.075 209.045,403.408 202.5,414.5C 201.094,414.973 200.427,415.973 200.5,417.5C 199.263,418.965 198.263,420.632 197.5,422.5C 196.094,422.973 195.427,423.973 195.5,425.5C 191.077,432.011 186.411,438.345 181.5,444.5C 179.728,438.35 178.061,432.017 176.5,425.5C 173.585,420.002 170.419,414.668 167,409.5C 159.277,401.616 150.777,394.616 141.5,388.5C 140.614,387.675 140.281,386.675 140.5,385.5C 144.262,379.642 147.762,373.642 151,367.5C 153.015,360.617 155.515,353.95 158.5,347.5C 158.167,347.167 157.833,346.833 157.5,346.5C 151.093,359.647 144.427,372.647 137.5,385.5C 129.099,381.631 120.765,377.465 112.5,373C 103.026,369.212 93.3598,365.879 83.5,363C 81.8934,361.951 81.2267,360.451 81.5,358.5C 82.5,357.167 83.5,355.833 84.5,354.5C 86.4077,353.514 87.4077,351.848 87.5,349.5C 89.77,344.574 92.4367,339.907 95.5,335.5C 96.9063,335.027 97.573,334.027 97.5,332.5C 97.9925,330.181 98.9925,328.181 100.5,326.5C 101.906,326.027 102.573,325.027 102.5,323.5C 102.328,322.508 102.662,321.842 103.5,321.5C 105.245,319.967 106.245,317.967 106.5,315.5C 107.65,312.702 108.983,310.035 110.5,307.5C 111.906,307.027 112.573,306.027 112.5,304.5C 112.935,301.843 113.935,299.509 115.5,297.5C 116.906,297.027 117.573,296.027 117.5,294.5C 120.437,288.29 123.104,281.957 125.5,275.5C 126.906,275.027 127.573,274.027 127.5,272.5C 127.5,272.167 127.5,271.833 127.5,271.5C 128.497,271.53 129.164,271.03 129.5,270C 130.828,266.876 131.828,263.71 132.5,260.5C 135.379,252.405 138.546,244.405 142,236.5C 144.192,227.73 146.692,219.063 149.5,210.5C 150.924,208.485 151.59,206.152 151.5,203.5C 152.371,200.888 153.037,198.221 153.5,195.5C 155.783,190.19 157.116,184.524 157.5,178.5C 157.5,177.5 157.5,176.5 157.5,175.5C 158.794,173.952 159.461,171.952 159.5,169.5C 159.999,164.841 160.333,160.174 160.5,155.5C 161.774,136.683 161.774,118.016 160.5,99.5C 161.08,95.351 160.414,91.6843 158.5,88.5C 158.354,84.4809 158.021,80.4809 157.5,76.5C 157.247,72.9601 156.581,69.6267 155.5,66.5C 154.376,62.2171 153.376,57.8838 152.5,53.5C 152.075,49.0917 151.408,44.7584 150.5,40.5C 149.253,29.157 149.253,17.8237 150.5,6.5C 150.56,5.95691 150.893,5.62358 151.5,5.5C 153.565,6.8567 155.565,8.19004 157.5,9.5 Z"/></g>
<g><path style="opacity:1" fill="#506224" d="M 157.5,9.5 C 160.855,9.68964 163.855,10.6896 166.5,12.5C 163.084,12.4725 160.084,11.4725 157.5,9.5 Z"/></g>
<g><path style="opacity:1" fill="#a99f1f" d="M 150.5,6.5 C 149.253,17.8237 149.253,29.157 150.5,40.5C 150.167,40.5 149.833,40.5 149.5,40.5C 148.404,29.8671 148.237,19.2004 149,8.5C 149.278,7.5842 149.778,6.91753 150.5,6.5 Z"/></g>
<g><path style="opacity:1" fill="#9b961f" d="M 166.5,12.5 C 169.43,13.299 172.43,13.6323 175.5,13.5C 175.5,17.5 175.5,21.5 175.5,25.5C 174.518,22.0381 174.185,18.3714 174.5,14.5C 171.302,15.0356 168.635,14.369 166.5,12.5 Z"/></g>
<g><path style="opacity:1" fill="#757c21" d="M 178.5,34.5 C 179.906,34.9731 180.573,35.9731 180.5,37.5C 179.094,37.0269 178.427,36.0269 178.5,34.5 Z"/></g>
<g><path style="opacity:1" fill="#425924" d="M 149.5,40.5 C 149.833,40.5 150.167,40.5 150.5,40.5C 151.408,44.7584 152.075,49.0917 152.5,53.5C 150.763,49.4577 149.763,45.1243 149.5,40.5 Z"/></g>
<g><path style="opacity:1" fill="#2f4a25" d="M 189.5,88.5 C 189.672,89.4916 189.338,90.1583 188.5,90.5C 185.93,85.6885 183.596,80.6885 181.5,75.5C 181.245,73.0326 180.245,71.0326 178.5,69.5C 175.678,63.1868 172.845,56.8535 170,50.5C 168.142,43.3627 166.642,36.3627 165.5,29.5C 173.351,49.2499 181.351,68.9166 189.5,88.5 Z"/></g>
<g><path style="opacity:1" fill="#616e23" d="M 155.5,66.5 C 156.581,69.6267 157.247,72.9601 157.5,76.5C 156.778,76.0825 156.278,75.4158 156,74.5C 155.503,71.854 155.336,69.1873 155.5,66.5 Z"/></g>
<g><path style="opacity:1" fill="#808321" d="M 178.5,69.5 C 180.245,71.0326 181.245,73.0326 181.5,75.5C 179.755,73.9674 178.755,71.9674 178.5,69.5 Z"/></g>
<g><path style="opacity:1" fill="#7a7f21" d="M 223.5,88.5 C 224.906,88.9731 225.573,89.9731 225.5,91.5C 224.094,91.0269 223.427,90.0269 223.5,88.5 Z"/></g>
<g><path style="opacity:1" fill="#908e21" d="M 158.5,88.5 C 160.414,91.6843 161.08,95.351 160.5,99.5C 159.313,96.0542 158.646,92.3875 158.5,88.5 Z"/></g>
<g><path style="opacity:1" fill="#405724" d="M 189.5,88.5 C 196.803,103.802 202.469,119.802 206.5,136.5C 204.991,135.141 204.324,135.641 204.5,138C 205.077,140.137 205.41,142.304 205.5,144.5C 203.762,137.698 202.262,130.698 201,123.5C 196.598,112.632 192.432,101.632 188.5,90.5C 189.338,90.1583 189.672,89.4916 189.5,88.5 Z"/></g>
<g><path style="opacity:1" fill="#697422" d="M 239.5,124.5 C 240.924,126.515 241.59,128.848 241.5,131.5C 240.076,129.485 239.41,127.152 239.5,124.5 Z"/></g>
<g><path style="opacity:1" fill="#526422" d="M 243.5,138.5 C 244.924,140.515 245.59,142.848 245.5,145.5C 244.076,143.485 243.41,141.152 243.5,138.5 Z"/></g>
<g><path style="opacity:1" fill="#294625" d="M 206.5,136.5 C 207.383,141.132 208.05,145.798 208.5,150.5C 208.438,155.076 209.105,159.409 210.5,163.5C 210.5,174.167 210.5,184.833 210.5,195.5C 209.144,201.649 208.144,207.983 207.5,214.5C 206.662,214.158 206.328,213.492 206.5,212.5C 206.505,208.466 206.838,204.466 207.5,200.5C 207.5,187.833 207.5,175.167 207.5,162.5C 207.698,157.25 207.031,152.25 205.5,147.5C 205.5,146.5 205.5,145.5 205.5,144.5C 205.41,142.304 205.077,140.137 204.5,138C 204.324,135.641 204.991,135.141 206.5,136.5 Z"/></g>
<g><path style="opacity:1" fill="#928f21" d="M 245.5,146.5 C 246.581,149.627 247.247,152.96 247.5,156.5C 246.778,156.082 246.278,155.416 246,154.5C 245.503,151.854 245.336,149.187 245.5,146.5 Z"/></g>
<g><path style="opacity:1" fill="#8f8e20" d="M 208.5,150.5 C 209.222,150.918 209.722,151.584 210,152.5C 210.499,156.152 210.665,159.818 210.5,163.5C 209.105,159.409 208.438,155.076 208.5,150.5 Z"/></g>
<g><path style="opacity:1" fill="#908e21" d="M 205.5,147.5 C 207.031,152.25 207.698,157.25 207.5,162.5C 206.111,157.731 205.444,152.731 205.5,147.5 Z"/></g>
<g><path style="opacity:1" fill="#949121" d="M 160.5,155.5 C 160.333,160.174 159.999,164.841 159.5,169.5C 159.461,171.952 158.794,173.952 157.5,175.5C 158.072,168.637 159.072,161.97 160.5,155.5 Z"/></g>
<g><path style="opacity:1" fill="#6b7523" d="M 157.5,178.5 C 157.116,184.524 155.783,190.19 153.5,195.5C 153.884,189.476 155.217,183.81 157.5,178.5 Z"/></g>
<g><path style="opacity:1" fill="#908e21" d="M 248.5,162.5 C 250.916,171.541 252.25,180.874 252.5,190.5C 250.634,181.382 249.3,172.049 248.5,162.5 Z"/></g>
<g><path style="opacity:1" fill="#334e24" d="M 252.5,191.5 C 253.222,191.918 253.722,192.584 254,193.5C 254.499,197.152 254.665,200.818 254.5,204.5C 253.437,200.361 252.77,196.028 252.5,191.5 Z"/></g>
<g><path style="opacity:1" fill="#5e6c22" d="M 151.5,203.5 C 151.59,206.152 150.924,208.485 149.5,210.5C 149.41,207.848 150.076,205.515 151.5,203.5 Z"/></g>
<g><path style="opacity:1" fill="#a49c1f" d="M 210.5,195.5 C 210.631,202.479 209.631,209.146 207.5,215.5C 207.5,215.167 207.5,214.833 207.5,214.5C 208.144,207.983 209.144,201.649 210.5,195.5 Z"/></g>
<g><path style="opacity:1" fill="#8b8b20" d="M 207.5,200.5 C 206.838,204.466 206.505,208.466 206.5,212.5C 205.816,215.592 204.816,218.592 203.5,221.5C 204.658,214.885 205.491,208.218 206,201.5C 206.383,200.944 206.883,200.611 207.5,200.5 Z"/></g>
<g><path style="opacity:1" fill="#3b5424" d="M 206.5,212.5 C 206.328,213.492 206.662,214.158 207.5,214.5C 207.5,214.833 207.5,215.167 207.5,215.5C 206.674,219.136 206.008,222.803 205.5,226.5C 203.926,228.102 203.259,230.102 203.5,232.5C 202.394,238.608 200.227,244.275 197,249.5C 196.833,249 196.667,248.5 196.5,248C 199.939,239.507 202.272,230.673 203.5,221.5C 204.816,218.592 205.816,215.592 206.5,212.5 Z"/></g>
<g><path style="opacity:1" fill="#984e47" d="M 43.5,231.5 C 38.4859,230.231 33.4859,230.231 28.5,231.5C 28.6107,230.883 28.944,230.383 29.5,230C 31.5,229.833 33.5,229.667 35.5,229.5C 38.5267,229.287 41.1934,229.953 43.5,231.5 Z"/></g>
<g><path style="opacity:1" fill="#fa4f50" d="M 43.5,231.5 C 48.7059,234.197 53.2059,237.863 57,242.5C 61.3721,237.395 66.8721,235.228 73.5,236C 80.0849,240.468 82.2515,246.635 80,254.5C 78.0772,258.682 75.9106,262.682 73.5,266.5C 72.8333,266.833 72.1667,267.167 71.5,267.5C 67.9775,270.75 64.3108,273.75 60.5,276.5C 59.5084,276.328 58.8417,276.662 58.5,277.5C 55.9984,279.17 53.9984,281.336 52.5,284C 49.3545,284.589 46.6878,283.755 44.5,281.5C 43.4154,279.413 41.7488,278.08 39.5,277.5C 32.0315,271.703 26.0315,264.703 21.5,256.5C 20.7255,251.203 20.3921,245.87 20.5,240.5C 21.9063,240.027 22.573,239.027 22.5,237.5C 23.5222,234.478 25.5222,232.478 28.5,231.5C 33.4859,230.231 38.4859,230.231 43.5,231.5 Z"/></g>
<g><path style="opacity:1" fill="#9d9720" d="M 205.5,226.5 C 205.741,228.898 205.074,230.898 203.5,232.5C 203.259,230.102 203.926,228.102 205.5,226.5 Z"/></g>
<g><path style="opacity:1" fill="#7e4f45" d="M 22.5,237.5 C 22.573,239.027 21.9063,240.027 20.5,240.5C 20.427,238.973 21.0937,237.973 22.5,237.5 Z"/></g>
<g><path style="opacity:1" fill="#864f45" d="M 20.5,240.5 C 20.3921,245.87 20.7255,251.203 21.5,256.5C 20.7784,256.082 20.2784,255.416 20,254.5C 19.1849,249.648 19.3516,244.981 20.5,240.5 Z"/></g>
<g><path style="opacity:1" fill="#1c3f32" d="M 170.5,269.5 C 166.5,270.833 162.5,270.833 158.5,269.5C 157.308,267.887 156.308,266.22 155.5,264.5C 155.405,261.303 156.072,258.303 157.5,255.5C 159.056,253.012 161.389,252.012 164.5,252.5C 171.906,253.078 175.073,257.078 174,264.5C 173.303,266.584 172.136,268.251 170.5,269.5 Z"/></g>
<g><path style="opacity:1" fill="#e7ebeb" d="M 161.5,267.5 C 159.207,264.094 158.874,260.427 160.5,256.5C 168.172,254.063 171.672,256.729 171,264.5C 168.658,268.33 165.492,269.33 161.5,267.5 Z"/></g>
<g><path style="opacity:1" fill="#6e7722" d="M 157.5,255.5 C 156.072,258.303 155.405,261.303 155.5,264.5C 154.371,262.372 154.204,260.039 155,257.5C 155.417,256.244 156.25,255.577 157.5,255.5 Z"/></g>
<g><path style="opacity:1" fill="#9caeab" d="M 160.5,256.5 C 158.874,260.427 159.207,264.094 161.5,267.5C 160.504,267.586 159.671,267.252 159,266.5C 156.646,262.615 157.146,259.282 160.5,256.5 Z"/></g>
<g><path style="opacity:1" fill="#244943" d="M 162.5,258.5 C 166.676,257.831 168.009,259.331 166.5,263C 165.207,263.49 163.873,263.657 162.5,263.5C 162.5,261.833 162.5,260.167 162.5,258.5 Z"/></g>
<g><path style="opacity:1" fill="#a19a20" d="M 132.5,260.5 C 131.828,263.71 130.828,266.876 129.5,270C 129.164,271.03 128.497,271.53 127.5,271.5C 128.61,267.468 130.277,263.802 132.5,260.5 Z"/></g>
<g><path style="opacity:1" fill="#e1c41a" d="M 71.5,267.5 C 71.33,268.822 71.6634,269.989 72.5,271C 85.5186,280.026 98.5186,289.026 111.5,298C 109.759,300.648 108.426,303.481 107.5,306.5C 105.022,305.117 102.355,304.117 99.5,303.5C 92.0636,299.612 84.7302,295.446 77.5,291C 73.641,287.968 69.9743,284.802 66.5,281.5C 66.0269,280.094 65.0269,279.427 63.5,279.5C 62.6935,278.272 61.6935,277.272 60.5,276.5C 64.3108,273.75 67.9775,270.75 71.5,267.5 Z"/></g>
<g><path style="opacity:1" fill="#5a6923" d="M 158.5,269.5 C 162.5,270.833 166.5,270.833 170.5,269.5C 170.389,270.117 170.056,270.617 169.5,271C 166.167,271.667 162.833,271.667 159.5,271C 158.944,270.617 158.611,270.117 158.5,269.5 Z"/></g>
<g><path style="opacity:1" fill="#425923" d="M 158.5,275.5 C 152.944,273.866 147.61,274.2 142.5,276.5C 144.237,273.988 146.737,272.988 150,273.5C 153.15,273.36 155.983,274.027 158.5,275.5 Z"/></g>
<g><path style="opacity:1" fill="#787e21" d="M 223.5,269.5 C 224.117,269.611 224.617,269.944 225,270.5C 225.667,273.5 225.667,276.5 225,279.5C 224.583,280.756 223.75,281.423 222.5,281.5C 224.71,277.684 225.044,273.684 223.5,269.5 Z"/></g>
<g><path style="opacity:1" fill="#677222" d="M 127.5,272.5 C 127.573,274.027 126.906,275.027 125.5,275.5C 125.427,273.973 126.094,272.973 127.5,272.5 Z"/></g>
<g><path style="opacity:1" fill="#3f5624" d="M 142.5,276.5 C 139.98,281.118 138.98,286.118 139.5,291.5C 138.357,288.024 138.19,284.358 139,280.5C 139.66,278.676 140.827,277.343 142.5,276.5 Z"/></g>
<g><path style="opacity:1" fill="#a25048" d="M 39.5,277.5 C 41.7488,278.08 43.4154,279.413 44.5,281.5C 42.2512,280.92 40.5846,279.587 39.5,277.5 Z"/></g>
<g><path style="opacity:1" fill="#7b8020" d="M 63.5,279.5 C 65.0269,279.427 66.0269,280.094 66.5,281.5C 64.9731,281.573 63.9731,280.906 63.5,279.5 Z"/></g>
<g><path style="opacity:1" fill="#1c3e2d" d="M 223.5,269.5 C 225.044,273.684 224.71,277.684 222.5,281.5C 213.591,287.173 207.924,284.84 205.5,274.5C 206.825,267.166 211.158,264.333 218.5,266C 220.881,266.223 222.547,267.39 223.5,269.5 Z"/></g>
<g><path style="opacity:1" fill="#dde3e2" d="M 213.5,267.5 C 220.108,268.285 222.608,271.952 221,278.5C 216.651,282.737 212.651,282.404 209,277.5C 207.571,272.783 209.071,269.45 213.5,267.5 Z"/></g>
<g><path style="opacity:1" fill="#345650" d="M 212.5,272.5 C 214.167,272.5 215.833,272.5 217.5,272.5C 218.169,276.676 216.669,278.009 213,276.5C 212.51,275.207 212.343,273.873 212.5,272.5 Z"/></g>
<g><path style="opacity:1" fill="#536423" d="M 177.5,282.5 C 181.785,283.262 185.785,284.595 189.5,286.5C 185.778,285.983 182.112,285.15 178.5,284C 177.944,283.617 177.611,283.117 177.5,282.5 Z"/></g>
<g><path style="opacity:1" fill="#8f8d20" d="M 216.5,288.5 C 219.716,288.345 222.383,289.345 224.5,291.5C 221.603,290.871 218.936,289.871 216.5,288.5 Z"/></g>
<g><path style="opacity:1" fill="#506223" d="M 250.5,281.5 C 250.667,287.503 249.667,293.17 247.5,298.5C 247.939,292.606 248.939,286.94 250.5,281.5 Z"/></g>
<g><path style="opacity:1" fill="#737b22" d="M 117.5,294.5 C 117.573,296.027 116.906,297.027 115.5,297.5C 115.427,295.973 116.094,294.973 117.5,294.5 Z"/></g>
<g><path style="opacity:1" fill="#163328" d="M 158.5,275.5 C 164.958,277.565 171.291,279.898 177.5,282.5C 177.611,283.117 177.944,283.617 178.5,284C 182.112,285.15 185.778,285.983 189.5,286.5C 198.412,288.036 207.412,288.703 216.5,288.5C 218.936,289.871 221.603,290.871 224.5,291.5C 227.609,295.021 228.276,299.021 226.5,303.5C 224.755,305.033 223.755,307.033 223.5,309.5C 219.579,315.426 214.246,319.426 207.5,321.5C 200.869,322.331 194.202,322.664 187.5,322.5C 184.794,322.425 182.127,322.092 179.5,321.5C 177.485,320.076 175.152,319.41 172.5,319.5C 169.098,318.365 165.765,317.032 162.5,315.5C 162.027,314.094 161.027,313.427 159.5,313.5C 154.933,311.584 150.933,308.918 147.5,305.5C 147.573,303.973 146.906,302.973 145.5,302.5C 142.742,299.322 140.742,295.655 139.5,291.5C 138.98,286.118 139.98,281.118 142.5,276.5C 147.61,274.2 152.944,273.866 158.5,275.5 Z"/></g>
<g><path style="opacity:1" fill="#ddd6d8" d="M 181.5,287.5 C 184.373,287.802 187.039,288.469 189.5,289.5C 188.615,293.264 186.448,294.264 183,292.5C 181.991,290.975 181.491,289.308 181.5,287.5 Z"/></g>
<g><path style="opacity:1" fill="#ece6e8" d="M 162.5,280.5 C 164.701,281.566 167.035,282.233 169.5,282.5C 169.22,286.225 167.22,287.392 163.5,286C 162.594,284.301 162.261,282.467 162.5,280.5 Z"/></g>
<g><path style="opacity:1" fill="#561425" d="M 162.5,280.5 C 162.261,282.467 162.594,284.301 163.5,286C 167.22,287.392 169.22,286.225 169.5,282.5C 173.153,284.942 177.153,286.608 181.5,287.5C 181.491,289.308 181.991,290.975 183,292.5C 186.448,294.264 188.615,293.264 189.5,289.5C 193.394,290.593 197.394,291.26 201.5,291.5C 202.128,294.955 204.128,296.122 207.5,295C 208.056,294.617 208.389,294.117 208.5,293.5C 209.552,292.47 210.886,291.803 212.5,291.5C 215.912,292.02 219.245,292.853 222.5,294C 224.344,301.471 222.344,307.805 216.5,313C 212.422,315.614 208.089,317.447 203.5,318.5C 202.137,314.298 199.47,311.131 195.5,309C 183.416,302.014 170.749,300.68 157.5,305C 156.748,305.671 156.414,306.504 156.5,307.5C 154.068,306.25 151.734,304.75 149.5,303C 147.789,300.411 145.955,297.911 144,295.5C 140.571,289.66 140.738,283.993 144.5,278.5C 150.87,275.927 156.87,276.594 162.5,280.5 Z"/></g>
<g><path style="opacity:1" fill="#ebe4e6" d="M 201.5,291.5 C 204.388,290.99 206.721,291.656 208.5,293.5C 208.389,294.117 208.056,294.617 207.5,295C 204.128,296.122 202.128,294.955 201.5,291.5 Z"/></g>
<g><path style="opacity:1" fill="#7d8122" d="M 145.5,302.5 C 146.906,302.973 147.573,303.973 147.5,305.5C 146.094,305.027 145.427,304.027 145.5,302.5 Z"/></g>
<g><path style="opacity:1" fill="#ee928a" d="M 203.5,318.5 C 200.038,319.482 196.371,319.815 192.5,319.5C 190.076,312.012 187.076,311.679 183.5,318.5C 180.123,318.041 176.789,317.374 173.5,316.5C 173.171,310.501 170.504,309.168 165.5,312.5C 161.728,312.116 158.728,310.45 156.5,307.5C 156.414,306.504 156.748,305.671 157.5,305C 170.749,300.68 183.416,302.014 195.5,309C 199.47,311.131 202.137,314.298 203.5,318.5 Z"/></g>
<g><path style="opacity:1" fill="#8f8e1f" d="M 99.5,303.5 C 102.355,304.117 105.022,305.117 107.5,306.5C 106.749,307.573 105.749,307.74 104.5,307C 102.569,306.098 100.903,304.931 99.5,303.5 Z"/></g>
<g><path style="opacity:1" fill="#747b22" d="M 112.5,304.5 C 112.573,306.027 111.906,307.027 110.5,307.5C 110.427,305.973 111.094,304.973 112.5,304.5 Z"/></g>
<g><path style="opacity:1" fill="#7d8221" d="M 226.5,303.5 C 226.245,305.967 225.245,307.967 223.5,309.5C 223.755,307.033 224.755,305.033 226.5,303.5 Z"/></g>
<g><path style="opacity:1" fill="#e6dfdd" d="M 173.5,316.5 C 170.246,316.206 167.579,314.873 165.5,312.5C 170.504,309.168 173.171,310.501 173.5,316.5 Z"/></g>
<g><path style="opacity:1" fill="#4b5f23" d="M 245.5,309.5 C 245.59,312.152 244.924,314.485 243.5,316.5C 243.41,313.848 244.076,311.515 245.5,309.5 Z"/></g>
<g><path style="opacity:1" fill="#647022" d="M 159.5,313.5 C 161.027,313.427 162.027,314.094 162.5,315.5C 160.973,315.573 159.973,314.906 159.5,313.5 Z"/></g>
<g><path style="opacity:1" fill="#f2e5e3" d="M 192.5,319.5 C 189.287,319.81 186.287,319.477 183.5,318.5C 187.076,311.679 190.076,312.012 192.5,319.5 Z"/></g>
<g><path style="opacity:1" fill="#787e21" d="M 172.5,319.5 C 175.152,319.41 177.485,320.076 179.5,321.5C 176.848,321.59 174.515,320.924 172.5,319.5 Z"/></g>
<g><path style="opacity:1" fill="#8c8c21" d="M 106.5,315.5 C 106.245,317.967 105.245,319.967 103.5,321.5C 103.755,319.033 104.755,317.033 106.5,315.5 Z"/></g>
<g><path style="opacity:1" fill="#a49c20" d="M 207.5,321.5 C 203.966,323.048 200.133,323.714 196,323.5C 192.979,323.498 190.146,323.164 187.5,322.5C 194.202,322.664 200.869,322.331 207.5,321.5 Z"/></g>
<g><path style="opacity:1" fill="#7d8121" d="M 102.5,323.5 C 102.573,325.027 101.906,326.027 100.5,326.5C 100.427,324.973 101.094,323.973 102.5,323.5 Z"/></g>
<g><path style="opacity:1" fill="#6a7422" d="M 241.5,325.5 C 241.125,327.698 240.458,329.698 239.5,331.5C 239.025,328.918 239.692,326.918 241.5,325.5 Z"/></g>
<g><path style="opacity:1" fill="#7b8021" d="M 97.5,332.5 C 97.573,334.027 96.9063,335.027 95.5,335.5C 95.427,333.973 96.0937,332.973 97.5,332.5 Z"/></g>
<g><path style="opacity:1" fill="#2e4925" d="M 237.5,339.5 C 236.1,340.1 235.1,341.1 234.5,342.5C 232.567,340.063 230.4,337.729 228,335.5C 227.5,333.333 228.333,332.5 230.5,333C 232.113,336.12 234.447,338.287 237.5,339.5 Z"/></g>
<g><path style="opacity:1" fill="#576723" d="M 221.5,345.5 C 220.167,345.5 219.5,346.167 219.5,347.5C 218.566,346.432 218.232,345.099 218.5,343.5C 220.179,343.285 221.179,343.952 221.5,345.5 Z"/></g>
<g><path style="opacity:1" fill="#3f9d36" d="M -0.5,351.5 C 25.5957,351.084 51.2624,354.084 76.5,360.5C 77.5676,361.434 78.901,361.768 80.5,361.5C 80.2627,360.209 80.596,359.209 81.5,358.5C 81.2267,360.451 81.8934,361.951 83.5,363C 93.3598,365.879 103.026,369.212 112.5,373C 120.765,377.465 129.099,381.631 137.5,385.5C 138.348,386.625 139.348,386.625 140.5,385.5C 140.281,386.675 140.614,387.675 141.5,388.5C 150.777,394.616 159.277,401.616 167,409.5C 170.419,414.668 173.585,420.002 176.5,425.5C 178.061,432.017 179.728,438.35 181.5,444.5C 180.28,446.282 179.614,448.282 179.5,450.5C 178.699,452.042 178.366,453.708 178.5,455.5C 118.833,455.5 59.1667,455.5 -0.5,455.5C -0.5,420.833 -0.5,386.167 -0.5,351.5 Z"/></g>
<g><path style="opacity:1" fill="#9b9621" d="M 87.5,349.5 C 87.4077,351.848 86.4077,353.514 84.5,354.5C 84.7497,352.326 85.7497,350.659 87.5,349.5 Z"/></g>
<g><path style="opacity:1" fill="#7f8320" d="M 243.5,355.5 C 244.906,355.973 245.573,356.973 245.5,358.5C 244.094,358.027 243.427,357.027 243.5,355.5 Z"/></g>
<g><path style="opacity:1" fill="#314c25" d="M 140.5,385.5 C 139.348,386.625 138.348,386.625 137.5,385.5C 144.427,372.647 151.093,359.647 157.5,346.5C 157.833,346.833 158.167,347.167 158.5,347.5C 155.515,353.95 153.015,360.617 151,367.5C 147.762,373.642 144.262,379.642 140.5,385.5 Z"/></g>
<g><path style="opacity:1" fill="#fefffe" d="M 263.5,429.5 C 263.441,433.548 265.108,436.715 268.5,439C 273.145,439.45 277.478,438.616 281.5,436.5C 281.5,442.833 281.5,449.167 281.5,455.5C 247.167,455.5 212.833,455.5 178.5,455.5C 178.366,453.708 178.699,452.042 179.5,450.5C 181.371,450.141 182.871,449.141 184,447.5C 202.658,422.138 218.325,395.138 231,366.5C 232.261,366.759 233.261,367.426 234,368.5C 239.653,378.468 245.319,388.468 251,398.5C 255.481,408.791 259.647,419.124 263.5,429.5 Z"/></g>
<g><path style="opacity:1" fill="#163a27" d="M 221.5,345.5 C 230.196,357.386 238.363,369.719 246,382.5C 248.728,387.728 251.228,393.061 253.5,398.5C 253.427,400.027 254.094,401.027 255.5,401.5C 256.892,404.007 257.892,406.673 258.5,409.5C 258.427,411.027 259.094,412.027 260.5,412.5C 262.518,418.526 264.518,424.526 266.5,430.5C 265.609,429.89 264.609,429.557 263.5,429.5C 259.647,419.124 255.481,408.791 251,398.5C 245.319,388.468 239.653,378.468 234,368.5C 233.261,367.426 232.261,366.759 231,366.5C 218.325,395.138 202.658,422.138 184,447.5C 182.871,449.141 181.371,450.141 179.5,450.5C 179.614,448.282 180.28,446.282 181.5,444.5C 186.411,438.345 191.077,432.011 195.5,425.5C 196.906,425.027 197.573,424.027 197.5,422.5C 198.263,420.632 199.263,418.965 200.5,417.5C 201.906,417.027 202.573,416.027 202.5,414.5C 209.045,403.408 215.045,392.075 220.5,380.5C 221.674,379.486 222.34,378.153 222.5,376.5C 224.884,371.551 226.884,366.385 228.5,361C 226.044,356.062 223.044,351.562 219.5,347.5C 219.5,346.167 220.167,345.5 221.5,345.5 Z"/></g>
<g><path style="opacity:1" fill="#808321" d="M 222.5,376.5 C 222.34,378.153 221.674,379.486 220.5,380.5C 220.229,378.62 220.896,377.287 222.5,376.5 Z"/></g>
<g><path style="opacity:1" fill="#697421" d="M 253.5,398.5 C 254.906,398.973 255.573,399.973 255.5,401.5C 254.094,401.027 253.427,400.027 253.5,398.5 Z"/></g>
<g><path style="opacity:1" fill="#717920" d="M 268.5,403.5 C 270.245,405.033 271.245,407.033 271.5,409.5C 269.755,407.967 268.755,405.967 268.5,403.5 Z"/></g>
<g><path style="opacity:1" fill="#707820" d="M 258.5,409.5 C 259.906,409.973 260.573,410.973 260.5,412.5C 259.094,412.027 258.427,411.027 258.5,409.5 Z"/></g>
<g><path style="opacity:1" fill="#787d22" d="M 202.5,414.5 C 202.573,416.027 201.906,417.027 200.5,417.5C 200.427,415.973 201.094,414.973 202.5,414.5 Z"/></g>
<g><path style="opacity:1" fill="#6e7722" d="M 197.5,422.5 C 197.573,424.027 196.906,425.027 195.5,425.5C 195.427,423.973 196.094,422.973 197.5,422.5 Z"/></g>
<g><path style="opacity:1" fill="#99941f" d="M 274.5,417.5 C 276.118,420.171 276.785,423.171 276.5,426.5C 275.343,423.727 274.676,420.727 274.5,417.5 Z"/></g>
<g><path style="opacity:1" fill="#4d6023" d="M 266.5,430.5 C 267.268,431.263 267.768,432.263 268,433.5C 269.292,432.209 270.458,432.209 271.5,433.5C 270.596,434.209 270.263,435.209 270.5,436.5C 267.221,435.969 265.887,433.969 266.5,430.5 Z"/></g>
</svg>
