<?xml version="1.0" encoding="UTF-8"?>
<!DOCTYPE svg PUBLIC "-//W3C//DTD SVG 1.1//EN" "http://www.w3.org/Graphics/SVG/1.1/DTD/svg11.dtd">
<svg xmlns="http://www.w3.org/2000/svg" version="1.1" width="230px" height="297px" style="shape-rendering:geometricPrecision; text-rendering:geometricPrecision; image-rendering:optimizeQuality; fill-rule:evenodd; clip-rule:evenodd" xmlns:xlink="http://www.w3.org/1999/xlink">
<g><path style="opacity:1" fill="#fcfdfd" d="M 48.5,-0.5 C 108.833,-0.5 169.167,-0.5 229.5,-0.5C 229.5,97.8333 229.5,196.167 229.5,294.5C 227.5,294.5 225.5,294.5 223.5,294.5C 223.833,209.998 223.499,125.665 222.5,41.5C 221.833,41.5 221.167,41.5 220.5,41.5C 220.768,39.901 220.434,38.5676 219.5,37.5C 219.93,32.7563 218.263,29.0897 214.5,26.5C 211.702,17.4048 205.369,12.7381 195.5,12.5C 194.583,13.1272 193.583,13.4606 192.5,13.5C 188.5,13.5 184.5,13.5 180.5,13.5C 180.158,12.6618 179.492,12.3284 178.5,12.5C 178.5,12.1667 178.5,11.8333 178.5,11.5C 165.022,10.1437 151.355,9.47702 137.5,9.5C 130.978,9.1765 124.645,9.50984 118.5,10.5C 115.518,10.9629 112.518,11.2962 109.5,11.5C 88.4974,11.3334 67.4974,11.5 46.5,12C 42.9748,12.1787 39.6414,12.6787 36.5,13.5C 32.4975,13.9713 29.3308,15.9713 27,19.5C 25.0403,22.8077 23.0403,26.141 21,29.5C 20.5045,31.4727 20.3379,33.4727 20.5,35.5C 19.5,35.5 18.5,35.5 17.5,35.5C 17.6643,42.2022 17.331,48.8689 16.5,55.5C 16.8264,64.3494 16.493,73.0161 15.5,81.5C 14.4608,85.3421 14.4608,89.3421 15.5,93.5C 15.7626,107.519 15.4293,121.519 14.5,135.5C 15.1425,173.657 15.8092,211.657 16.5,249.5C 17.8333,256.833 17.8333,264.167 16.5,271.5C 15.508,278.982 15.1746,286.648 15.5,294.5C 10.8333,294.5 6.16667,294.5 1.5,294.5C 1.66635,286.826 1.49969,279.159 1,271.5C 0.78997,269.942 0.28997,268.609 -0.5,267.5C -0.5,237.5 -0.5,207.5 -0.5,177.5C 1.0468,175.193 1.71347,172.527 1.5,169.5C 1.33333,167.5 1.16667,165.5 1,163.5C 0.617425,162.944 0.117425,162.611 -0.5,162.5C -0.5,158.167 -0.5,153.833 -0.5,149.5C 1.01864,135.699 1.6853,121.699 1.5,107.5C 1.33333,97.8333 1.16667,88.1667 1,78.5C 0.617425,79.056 0.117425,79.3893 -0.5,79.5C -0.5,73.5 -0.5,67.5 -0.5,61.5C 0.808559,59.4294 1.47523,56.9294 1.5,54C 1.22666,36.1934 1.22666,18.36 1.5,0.5C 17.3422,0.829616 33.0089,0.496282 48.5,-0.5 Z"/></g>
<g><path style="opacity:1" fill="#c1d3cf" d="M -0.5,-0.5 C 15.8333,-0.5 32.1667,-0.5 48.5,-0.5C 33.0089,0.496282 17.3422,0.829616 1.5,0.5C 1.22666,18.36 1.22666,36.1934 1.5,54C 1.47523,56.9294 0.808559,59.4294 -0.5,61.5C -0.5,40.8333 -0.5,20.1667 -0.5,-0.5 Z"/></g>
<g><path style="opacity:1" fill="#519e49" d="M 137.5,9.5 C 143.167,10.1667 148.833,10.8333 154.5,11.5C 142.322,11.8284 130.322,11.4951 118.5,10.5C 124.645,9.50984 130.978,9.1765 137.5,9.5 Z"/></g>
<g><path style="opacity:1" fill="#c1ddbe" d="M 137.5,9.5 C 151.355,9.47702 165.022,10.1437 178.5,11.5C 170.5,11.5 162.5,11.5 154.5,11.5C 148.833,10.8333 143.167,10.1667 137.5,9.5 Z"/></g>
<g><path style="opacity:1" fill="#55874d" d="M 118.5,10.5 C 130.322,11.4951 142.322,11.8284 154.5,11.5C 162.5,11.5 170.5,11.5 178.5,11.5C 178.5,11.8333 178.5,12.1667 178.5,12.5C 155.327,12.8308 132.327,12.4975 109.5,11.5C 112.518,11.2962 115.518,10.9629 118.5,10.5 Z"/></g>
<g><path style="opacity:1" fill="#8f978d" d="M 109.5,11.5 C 132.327,12.4975 155.327,12.8308 178.5,12.5C 179.492,12.3284 180.158,12.6618 180.5,13.5C 137.167,13.5 93.8333,13.5 50.5,13.5C 45.8333,13.5 41.1667,13.5 36.5,13.5C 39.6414,12.6787 42.9748,12.1787 46.5,12C 67.4974,11.5 88.4974,11.3334 109.5,11.5 Z"/></g>
<g><path style="opacity:1" fill="#524e4b" d="M 50.5,14.5 C 50.5,14.1667 50.5,13.8333 50.5,13.5C 93.8333,13.5 137.167,13.5 180.5,13.5C 184.5,13.5 188.5,13.5 192.5,13.5C 194.5,14.1667 196.5,14.8333 198.5,15.5C 149.179,14.5433 99.8452,14.2099 50.5,14.5 Z"/></g>
<g><path style="opacity:1" fill="#a1bb9b" d="M 214.5,26.5 C 212.5,25.1667 210.833,23.5 209.5,21.5C 207.238,17.2747 203.571,15.2747 198.5,15.5C 196.5,14.8333 194.5,14.1667 192.5,13.5C 193.583,13.4606 194.583,13.1272 195.5,12.5C 205.369,12.7381 211.702,17.4048 214.5,26.5 Z"/></g>
<g><path style="opacity:1" fill="#151414" d="M 50.5,14.5 C 99.8452,14.2099 149.179,14.5433 198.5,15.5C 201.982,16.7436 204.982,18.7436 207.5,21.5C 204.044,20.3006 200.711,18.8006 197.5,17C 156.831,16.67 116.164,16.17 75.5,15.5C 64.4883,15.6252 53.4883,15.9585 42.5,16.5C 44.9608,15.469 47.6275,14.8023 50.5,14.5 Z"/></g>
<g><path style="opacity:1" fill="#050b09" d="M 207.5,21.5 C 208.167,21.5 208.833,21.5 209.5,21.5C 210.833,23.5 212.5,25.1667 214.5,26.5C 215.68,30.4261 217.346,34.0927 219.5,37.5C 220.476,123.823 220.809,210.156 220.5,296.5C 218.167,296.5 215.833,296.5 213.5,296.5C 213.667,211.166 213.5,125.833 213,40.5C 209.514,29.5005 202.014,23.3338 190.5,22C 142.5,21.3333 94.5,21.3333 46.5,22C 36.442,24.3908 29.942,30.5574 27,40.5C 26.5,125.833 26.3333,211.166 26.5,296.5C 25.1667,296.5 23.8333,296.5 22.5,296.5C 21.828,295.733 20.9947,295.066 20,294.5C 19.5,210.167 19.3333,125.834 19.5,41.5C 20.1495,39.5648 20.4828,37.5648 20.5,35.5C 22.7601,30.6439 25.7601,26.3105 29.5,22.5C 31.7541,21.746 33.5874,20.4127 35,18.5C 37.3187,17.1287 39.8187,16.4621 42.5,16.5C 53.4883,15.9585 64.4883,15.6252 75.5,15.5C 116.164,16.17 156.831,16.67 197.5,17C 200.711,18.8006 204.044,20.3006 207.5,21.5 Z"/></g>
<g><path style="opacity:1" fill="#898b80" d="M 198.5,15.5 C 203.571,15.2747 207.238,17.2747 209.5,21.5C 208.833,21.5 208.167,21.5 207.5,21.5C 204.982,18.7436 201.982,16.7436 198.5,15.5 Z"/></g>
<g><path style="opacity:1" fill="#6e7f77" d="M 36.5,13.5 C 41.1667,13.5 45.8333,13.5 50.5,13.5C 50.5,13.8333 50.5,14.1667 50.5,14.5C 47.6275,14.8023 44.9608,15.469 42.5,16.5C 39.8187,16.4621 37.3187,17.1287 35,18.5C 33.5874,20.4127 31.7541,21.746 29.5,22.5C 28.6971,21.5768 28.5304,20.5768 29,19.5C 31.1337,16.8474 33.6337,14.8474 36.5,13.5 Z"/></g>
<g><path style="opacity:1" fill="#034e3b" d="M 213.5,296.5 C 151.167,296.5 88.8333,296.5 26.5,296.5C 26.3333,211.166 26.5,125.833 27,40.5C 29.942,30.5574 36.442,24.3908 46.5,22C 94.5,21.3333 142.5,21.3333 190.5,22C 202.014,23.3338 209.514,29.5005 213,40.5C 213.5,125.833 213.667,211.166 213.5,296.5 Z"/></g>
<g><path style="opacity:1" fill="#a8b0ac" d="M 36.5,13.5 C 33.6337,14.8474 31.1337,16.8474 29,19.5C 28.5304,20.5768 28.6971,21.5768 29.5,22.5C 25.7601,26.3105 22.7601,30.6439 20.5,35.5C 20.3379,33.4727 20.5045,31.4727 21,29.5C 23.0403,26.141 25.0403,22.8077 27,19.5C 29.3308,15.9713 32.4975,13.9713 36.5,13.5 Z"/></g>
<g><path style="opacity:1" fill="#020404" d="M 142.5,43.5 C 126.422,43.8175 110.422,43.4841 94.5,42.5C 90.0055,38.6919 89.3388,34.1919 92.5,29C 94.087,28.1376 95.7536,27.4709 97.5,27C 112.5,26.3333 127.5,26.3333 142.5,27C 148.143,28.7791 150.31,32.6125 149,38.5C 147.841,41.4934 145.675,43.1601 142.5,43.5 Z"/></g>
<g><path style="opacity:1" fill="#aeadaa" d="M 214.5,26.5 C 218.263,29.0897 219.93,32.7563 219.5,37.5C 217.346,34.0927 215.68,30.4261 214.5,26.5 Z"/></g>
<g><path style="opacity:1" fill="#ced1ce" d="M 20.5,35.5 C 20.4828,37.5648 20.1495,39.5648 19.5,41.5C 18.5139,45.97 18.1805,50.6367 18.5,55.5C 17.8333,55.5 17.1667,55.5 16.5,55.5C 17.331,48.8689 17.6643,42.2022 17.5,35.5C 18.5,35.5 19.5,35.5 20.5,35.5 Z"/></g>
<g><path style="opacity:1" fill="#003729" d="M 94.5,42.5 C 110.422,43.4841 126.422,43.8175 142.5,43.5C 135.197,44.8309 127.53,45.4976 119.5,45.5C 111.833,45.3333 104.167,45.1667 96.5,45C 95.244,44.5831 94.5774,43.7498 94.5,42.5 Z"/></g>
<g><path style="opacity:1" fill="#637b72" d="M 16.5,55.5 C 17.1667,55.5 17.8333,55.5 18.5,55.5C 18.5,56.8333 18.5,58.1667 18.5,59.5C 17.5073,67.6499 17.1739,75.9832 17.5,84.5C 16.0937,84.0269 15.427,83.0269 15.5,81.5C 16.493,73.0161 16.8264,64.3494 16.5,55.5 Z"/></g>
<g><path style="opacity:1" fill="#88aca3" d="M 83.5,66.5 C 76.4796,65.2529 69.4796,65.2529 62.5,66.5C 62.6107,65.8826 62.944,65.3826 63.5,65C 69.5,64.3333 75.5,64.3333 81.5,65C 82.4158,65.2784 83.0825,65.7784 83.5,66.5 Z"/></g>
<g><path style="opacity:1" fill="#95b5ad" d="M 122.5,65.5 C 127.975,64.5111 133.642,64.1778 139.5,64.5C 139.5,66.1667 139.5,67.8333 139.5,69.5C 138.167,69.5 136.833,69.5 135.5,69.5C 136.209,68.596 137.209,68.2627 138.5,68.5C 138.5,67.5 138.5,66.5 138.5,65.5C 133.167,65.5 127.833,65.5 122.5,65.5 Z"/></g>
<g><path style="opacity:1" fill="#89ada4" d="M 178.5,66.5 C 171.48,65.2529 164.48,65.2529 157.5,66.5C 157.611,65.8826 157.944,65.3826 158.5,65C 164.5,64.3333 170.5,64.3333 176.5,65C 177.416,65.2784 178.082,65.7784 178.5,66.5 Z"/></g>
<g><path style="opacity:1" fill="#e9f0ee" d="M 83.5,66.5 C 84.7311,67.7177 85.8978,69.051 87,70.5C 87.4997,78.4931 87.6664,86.4931 87.5,94.5C 79.4931,94.6664 71.4931,94.4997 63.5,94C 61.714,93.2155 60.214,92.0488 59,90.5C 57.4638,84.2506 57.1304,77.9172 58,71.5C 58.6556,69.0139 60.1556,67.3472 62.5,66.5C 69.4796,65.2529 76.4796,65.2529 83.5,66.5 Z"/></g>
<g><path style="opacity:1" fill="#fcfdfd" d="M 92.5,65.5 C 93.5,65.5 94.5,65.5 95.5,65.5C 95.5,66.5 95.5,67.5 95.5,68.5C 94.5,68.5 93.5,68.5 92.5,68.5C 92.5,67.5 92.5,66.5 92.5,65.5 Z"/></g>
<g><path style="opacity:1" fill="#eff4f3" d="M 122.5,65.5 C 127.833,65.5 133.167,65.5 138.5,65.5C 138.5,66.5 138.5,67.5 138.5,68.5C 137.209,68.2627 136.209,68.596 135.5,69.5C 135.5,70.8333 135.5,72.1667 135.5,73.5C 136.833,73.5 138.167,73.5 139.5,73.5C 139.5,74.8333 139.5,76.1667 139.5,77.5C 140.833,77.5 142.167,77.5 143.5,77.5C 143.5,79.1667 143.5,80.8333 143.5,82.5C 142.167,82.5 140.833,82.5 139.5,82.5C 138.596,83.209 138.263,84.209 138.5,85.5C 137.5,85.5 136.5,85.5 135.5,85.5C 135.737,84.209 135.404,83.209 134.5,82.5C 133.5,82.5 132.5,82.5 131.5,82.5C 131.5,80.8333 131.5,79.1667 131.5,77.5C 128.5,77.5 125.5,77.5 122.5,77.5C 122.5,79.1667 122.5,80.8333 122.5,82.5C 123.833,82.5 125.167,82.5 126.5,82.5C 126.5,85.1667 126.5,87.8333 126.5,90.5C 125.167,90.5 123.833,90.5 122.5,90.5C 122.5,89.1667 122.5,87.8333 122.5,86.5C 120.052,85.5269 117.385,85.1936 114.5,85.5C 114.5,84.5 114.5,83.5 114.5,82.5C 115.833,82.5 117.167,82.5 118.5,82.5C 118.81,79.2869 118.477,76.2869 117.5,73.5C 116.167,73.5 114.833,73.5 113.5,73.5C 113.5,72.1667 113.5,70.8333 113.5,69.5C 116.5,69.5 119.5,69.5 122.5,69.5C 122.5,70.8333 122.5,72.1667 122.5,73.5C 123.833,73.5 125.167,73.5 126.5,73.5C 126.5,72.1667 126.5,70.8333 126.5,69.5C 125.432,68.5655 124.099,68.2322 122.5,68.5C 122.5,67.5 122.5,66.5 122.5,65.5 Z"/></g>
<g><path style="opacity:1" fill="#edf2f1" d="M 178.5,66.5 C 181.95,70.2559 183.283,74.7559 182.5,80C 183.605,85.6908 181.939,90.1908 177.5,93.5C 169.221,94.4396 160.888,94.7729 152.5,94.5C 152.334,86.4931 152.5,78.4931 153,70.5C 153.792,68.3563 155.292,67.023 157.5,66.5C 164.48,65.2529 171.48,65.2529 178.5,66.5 Z"/></g>
<g><path style="opacity:1" fill="#92b3ab" d="M 92.5,65.5 C 93.5676,64.5655 94.901,64.2322 96.5,64.5C 96.5,66.1667 96.5,67.8333 96.5,69.5C 94.901,69.7678 93.5676,69.4345 92.5,68.5C 93.5,68.5 94.5,68.5 95.5,68.5C 95.5,67.5 95.5,66.5 95.5,65.5C 94.5,65.5 93.5,65.5 92.5,65.5 Z"/></g>
<g><path style="opacity:1" fill="#6d998d" d="M 122.5,65.5 C 122.5,66.5 122.5,67.5 122.5,68.5C 124.099,68.2322 125.432,68.5655 126.5,69.5C 125.167,69.5 123.833,69.5 122.5,69.5C 119.5,69.5 116.5,69.5 113.5,69.5C 115.948,68.5269 118.615,68.1936 121.5,68.5C 121.263,67.209 121.596,66.209 122.5,65.5 Z"/></g>
<g><path style="opacity:1" fill="#7da49a" d="M 108.5,69.5 C 107.5,69.5 106.5,69.5 105.5,69.5C 105.768,71.099 105.434,72.4324 104.5,73.5C 104.5,72.1667 104.5,70.8333 104.5,69.5C 100.5,70.1667 98.8333,68.5 99.5,64.5C 101.5,64.5 103.5,64.5 105.5,64.5C 105.5,65.8333 105.5,67.1667 105.5,68.5C 106.791,68.2627 107.791,68.596 108.5,69.5 Z"/></g>
<g><path style="opacity:1" fill="#f9fafa" d="M 101.5,65.5 C 102.5,65.5 103.5,65.5 104.5,65.5C 104.5,66.5 104.5,67.5 104.5,68.5C 103.5,68.5 102.5,68.5 101.5,68.5C 101.5,67.5 101.5,66.5 101.5,65.5 Z"/></g>
<g><path style="opacity:1" fill="#125745" d="M 82.5,72.5 C 82.5,78.1667 82.5,83.8333 82.5,89.5C 75.5911,90.0397 68.9245,89.3731 62.5,87.5C 62.334,82.1563 62.5006,76.8229 63,71.5C 63.5,71 64,70.5 64.5,70C 69.5,69.3333 74.5,69.3333 79.5,70C 80.3734,71.045 81.3734,71.8783 82.5,72.5 Z"/></g>
<g><path style="opacity:1" fill="#eef3f1" d="M 108.5,69.5 C 108.5,72.1667 108.5,74.8333 108.5,77.5C 105.833,77.5 103.167,77.5 100.5,77.5C 100.5,76.1667 100.5,74.8333 100.5,73.5C 101.833,73.5 103.167,73.5 104.5,73.5C 105.434,72.4324 105.768,71.099 105.5,69.5C 106.5,69.5 107.5,69.5 108.5,69.5 Z"/></g>
<g><path style="opacity:1" fill="#508275" d="M 147.5,73.5 C 147.5,72.1667 147.5,70.8333 147.5,69.5C 146.5,69.5 145.5,69.5 144.5,69.5C 144.5,70.8333 144.5,72.1667 144.5,73.5C 143.549,72.0813 143.216,70.4147 143.5,68.5C 145.5,68.5 147.5,68.5 149.5,68.5C 149.923,70.7812 149.256,72.4479 147.5,73.5 Z"/></g>
<g><path style="opacity:1" fill="#165947" d="M 177.5,73.5 C 177.779,78.5947 177.445,83.5947 176.5,88.5C 175.833,88.8333 175.167,89.1667 174.5,89.5C 168.833,89.5 163.167,89.5 157.5,89.5C 157.5,84.1667 157.5,78.8333 157.5,73.5C 157.511,71.9826 158.177,70.8159 159.5,70C 164.833,69.3333 170.167,69.3333 175.5,70C 176.823,70.8159 177.489,71.9826 177.5,73.5 Z"/></g>
<g><path style="opacity:1" fill="#e7eeed" d="M 147.5,73.5 C 146.5,73.5 145.5,73.5 144.5,73.5C 144.5,72.1667 144.5,70.8333 144.5,69.5C 145.5,69.5 146.5,69.5 147.5,69.5C 147.5,70.8333 147.5,72.1667 147.5,73.5 Z"/></g>
<g><path style="opacity:1" fill="#286757" d="M 122.5,69.5 C 123.833,69.5 125.167,69.5 126.5,69.5C 126.5,70.8333 126.5,72.1667 126.5,73.5C 125.167,73.5 123.833,73.5 122.5,73.5C 122.5,72.1667 122.5,70.8333 122.5,69.5 Z"/></g>
<g><path style="opacity:1" fill="#aec6c0" d="M 78.5,75.5 C 69.2068,71.7953 65.2068,74.7953 66.5,84.5C 63.2682,74.3959 66.9349,70.8959 77.5,74C 78.056,74.3826 78.3893,74.8826 78.5,75.5 Z"/></g>
<g><path style="opacity:1" fill="#fefefe" d="M 78.5,75.5 C 78.5,78.8333 78.5,82.1667 78.5,85.5C 74.8333,85.5 71.1667,85.5 67.5,85.5C 67.5,84.8333 67.1667,84.5 66.5,84.5C 65.2068,74.7953 69.2068,71.7953 78.5,75.5 Z"/></g>
<g><path style="opacity:1" fill="#ebf1f0" d="M 92.5,73.5 C 93.5,73.5 94.5,73.5 95.5,73.5C 95.5,74.8333 95.5,76.1667 95.5,77.5C 94.5,77.5 93.5,77.5 92.5,77.5C 92.5,76.1667 92.5,74.8333 92.5,73.5 Z"/></g>
<g><path style="opacity:1" fill="#f9fbfa" d="M 172.5,85.5 C 168.833,85.5 165.167,85.5 161.5,85.5C 161.5,82.1667 161.5,78.8333 161.5,75.5C 161.611,74.8826 161.944,74.3826 162.5,74C 173.233,71.2031 176.567,75.0364 172.5,85.5 Z"/></g>
<g><path style="opacity:1" fill="#8bada5" d="M 177.5,73.5 C 178.164,75.8097 178.497,78.3097 178.5,81C 178.475,83.9294 177.809,86.4294 176.5,88.5C 177.445,83.5947 177.779,78.5947 177.5,73.5 Z"/></g>
<g><path style="opacity:1" fill="#d0e7ce" d="M -0.5,149.5 C -0.5,126.167 -0.5,102.833 -0.5,79.5C 0.117425,79.3893 0.617425,79.056 1,78.5C 1.16667,88.1667 1.33333,97.8333 1.5,107.5C 1.6853,121.699 1.01864,135.699 -0.5,149.5 Z"/></g>
<g><path style="opacity:1" fill="#387262" d="M 131.5,82.5 C 129.952,82.1788 129.285,81.1788 129.5,79.5C 127.473,79.3379 125.473,79.5045 123.5,80C 124.766,80.3095 125.933,80.8095 127,81.5C 127.497,84.146 127.664,86.8127 127.5,89.5C 129.483,89.1568 130.817,89.8235 131.5,91.5C 129.958,90.6993 128.292,90.366 126.5,90.5C 126.5,87.8333 126.5,85.1667 126.5,82.5C 125.167,82.5 123.833,82.5 122.5,82.5C 122.5,80.8333 122.5,79.1667 122.5,77.5C 125.5,77.5 128.5,77.5 131.5,77.5C 131.5,79.1667 131.5,80.8333 131.5,82.5 Z"/></g>
<g><path style="opacity:1" fill="#92b2aa" d="M 134.5,82.5 C 135.404,83.209 135.737,84.209 135.5,85.5C 136.5,85.5 137.5,85.5 138.5,85.5C 138.263,84.209 138.596,83.209 139.5,82.5C 139.5,83.8333 139.5,85.1667 139.5,86.5C 137.833,86.5 136.167,86.5 134.5,86.5C 134.5,85.1667 134.5,83.8333 134.5,82.5 Z"/></g>
<g><path style="opacity:1" fill="#93b3ab" d="M 78.5,75.5 C 79.4816,78.9619 79.815,82.6286 79.5,86.5C 75.2984,86.8168 71.2984,86.4834 67.5,85.5C 71.1667,85.5 74.8333,85.5 78.5,85.5C 78.5,82.1667 78.5,78.8333 78.5,75.5 Z"/></g>
<g><path style="opacity:1" fill="#93b3ab" d="M 161.5,75.5 C 161.5,78.8333 161.5,82.1667 161.5,85.5C 165.167,85.5 168.833,85.5 172.5,85.5C 168.702,86.4834 164.702,86.8168 160.5,86.5C 160.185,82.6286 160.518,78.9619 161.5,75.5 Z"/></g>
<g><path style="opacity:1" fill="#6fa56a" d="M 15.5,81.5 C 15.427,83.0269 16.0937,84.0269 17.5,84.5C 17.81,87.7131 17.4767,90.7131 16.5,93.5C 16.1667,93.5 15.8333,93.5 15.5,93.5C 14.4608,89.3421 14.4608,85.3421 15.5,81.5 Z"/></g>
<g><path style="opacity:1" fill="#edf3f1" d="M 113.5,86.5 C 113.5,89.1667 113.5,91.8333 113.5,94.5C 112.167,94.5 110.833,94.5 109.5,94.5C 109.5,91.8333 109.5,89.1667 109.5,86.5C 110.833,86.5 112.167,86.5 113.5,86.5 Z"/></g>
<g><path style="opacity:1" fill="#165948" d="M 113.5,86.5 C 116.5,86.5 119.5,86.5 122.5,86.5C 122.5,87.8333 122.5,89.1667 122.5,90.5C 120.833,90.5 119.167,90.5 117.5,90.5C 117.5,93.1667 117.5,95.8333 117.5,98.5C 115.167,98.5 112.833,98.5 110.5,98.5C 110.5,97.5 110.5,96.5 110.5,95.5C 111.791,95.7373 112.791,95.404 113.5,94.5C 113.5,91.8333 113.5,89.1667 113.5,86.5 Z"/></g>
<g><path style="opacity:1" fill="#f0f4f3" d="M 147.5,107.5 C 146.167,107.5 144.833,107.5 143.5,107.5C 143.5,109.167 143.5,110.833 143.5,112.5C 146.5,112.5 149.5,112.5 152.5,112.5C 152.5,113.833 152.5,115.167 152.5,116.5C 151.167,116.5 149.833,116.5 148.5,116.5C 148.768,118.099 148.434,119.432 147.5,120.5C 146.5,120.5 145.5,120.5 144.5,120.5C 144.768,118.901 144.434,117.568 143.5,116.5C 142.167,116.5 140.833,116.5 139.5,116.5C 139.5,112.167 139.5,107.833 139.5,103.5C 140.833,103.5 142.167,103.5 143.5,103.5C 144.488,98.3595 144.821,93.0262 144.5,87.5C 145.5,87.5 146.5,87.5 147.5,87.5C 147.5,94.1667 147.5,100.833 147.5,107.5 Z"/></g>
<g><path style="opacity:1" fill="#87aba2" d="M 143.5,86.5 C 145.167,86.5 146.833,86.5 148.5,86.5C 148.825,93.6866 148.491,100.687 147.5,107.5C 147.5,100.833 147.5,94.1667 147.5,87.5C 146.5,87.5 145.5,87.5 144.5,87.5C 144.821,93.0262 144.488,98.3595 143.5,103.5C 143.5,97.8333 143.5,92.1667 143.5,86.5 Z"/></g>
<g><path style="opacity:1" fill="#367162" d="M 143.5,86.5 C 145.265,85.5386 147.265,85.2053 149.5,85.5C 149.5,93.1667 149.5,100.833 149.5,108.5C 147.833,108.5 146.167,108.5 144.5,108.5C 144.5,109.5 144.5,110.5 144.5,111.5C 147.385,111.194 150.052,111.527 152.5,112.5C 149.5,112.5 146.5,112.5 143.5,112.5C 143.5,110.833 143.5,109.167 143.5,107.5C 144.833,107.5 146.167,107.5 147.5,107.5C 148.491,100.687 148.825,93.6866 148.5,86.5C 146.833,86.5 145.167,86.5 143.5,86.5 Z"/></g>
<g><path style="opacity:1" fill="#629085" d="M 82.5,72.5 C 83.4896,78.31 83.8229,84.31 83.5,90.5C 77.1579,90.6662 70.8246,90.4995 64.5,90C 63.6195,89.2917 62.9528,88.4584 62.5,87.5C 68.9245,89.3731 75.5911,90.0397 82.5,89.5C 82.5,83.8333 82.5,78.1667 82.5,72.5 Z"/></g>
<g><path style="opacity:1" fill="#629185" d="M 157.5,73.5 C 157.5,78.8333 157.5,84.1667 157.5,89.5C 163.167,89.5 168.833,89.5 174.5,89.5C 168.69,90.4896 162.69,90.8229 156.5,90.5C 156.178,84.642 156.511,78.9753 157.5,73.5 Z"/></g>
<g><path style="opacity:1" fill="#f4f7f6" d="M 122.5,94.5 C 123.568,95.4345 124.901,95.7678 126.5,95.5C 126.5,94.1667 126.5,92.8333 126.5,91.5C 127.5,91.5 128.5,91.5 129.5,91.5C 129.5,93.8333 129.5,96.1667 129.5,98.5C 126.941,98.1984 124.607,98.5318 122.5,99.5C 121.527,101.948 121.194,104.615 121.5,107.5C 116.167,107.5 110.833,107.5 105.5,107.5C 105.5,106.167 105.5,104.833 105.5,103.5C 106.5,103.5 107.5,103.5 108.5,103.5C 109.434,102.432 109.768,101.099 109.5,99.5C 112.5,99.5 115.5,99.5 118.5,99.5C 118.5,96.8333 118.5,94.1667 118.5,91.5C 119.5,91.5 120.5,91.5 121.5,91.5C 121.263,92.791 121.596,93.791 122.5,94.5 Z"/></g>
<g><path style="opacity:1" fill="#8eafa7" d="M 134.5,90.5 C 136.167,90.5 137.833,90.5 139.5,90.5C 139.5,93.5 139.5,96.5 139.5,99.5C 137.833,99.5 136.167,99.5 134.5,99.5C 134.5,96.5 134.5,93.5 134.5,90.5 Z"/></g>
<g><path style="opacity:1" fill="#f8fafa" d="M 135.5,91.5 C 136.5,91.5 137.5,91.5 138.5,91.5C 138.5,93.8333 138.5,96.1667 138.5,98.5C 137.5,98.5 136.5,98.5 135.5,98.5C 135.5,96.1667 135.5,93.8333 135.5,91.5 Z"/></g>
<g><path style="opacity:1" fill="#81a79d" d="M 108.5,69.5 C 109.473,71.9479 109.806,74.6146 109.5,77.5C 111.099,77.2322 112.432,77.5655 113.5,78.5C 112.167,78.5 110.833,78.5 109.5,78.5C 109.5,79.5 109.5,80.5 109.5,81.5C 110.833,81.5 112.167,81.5 113.5,81.5C 114.833,81.5 116.167,81.5 117.5,81.5C 117.5,78.8333 117.5,76.1667 117.5,73.5C 118.477,76.2869 118.81,79.2869 118.5,82.5C 117.167,82.5 115.833,82.5 114.5,82.5C 114.5,83.5 114.5,84.5 114.5,85.5C 117.385,85.1936 120.052,85.5269 122.5,86.5C 119.5,86.5 116.5,86.5 113.5,86.5C 112.167,86.5 110.833,86.5 109.5,86.5C 109.5,89.1667 109.5,91.8333 109.5,94.5C 110.833,94.5 112.167,94.5 113.5,94.5C 112.791,95.404 111.791,95.7373 110.5,95.5C 110.5,96.5 110.5,97.5 110.5,98.5C 112.833,98.5 115.167,98.5 117.5,98.5C 117.5,95.8333 117.5,93.1667 117.5,90.5C 119.167,90.5 120.833,90.5 122.5,90.5C 123.833,90.5 125.167,90.5 126.5,90.5C 128.292,90.366 129.958,90.6993 131.5,91.5C 131.5,94.1667 131.5,96.8333 131.5,99.5C 128.5,99.5 125.5,99.5 122.5,99.5C 124.607,98.5318 126.941,98.1984 129.5,98.5C 129.5,96.1667 129.5,93.8333 129.5,91.5C 128.5,91.5 127.5,91.5 126.5,91.5C 126.5,92.8333 126.5,94.1667 126.5,95.5C 124.901,95.7678 123.568,95.4345 122.5,94.5C 121.596,93.791 121.263,92.791 121.5,91.5C 120.5,91.5 119.5,91.5 118.5,91.5C 118.5,94.1667 118.5,96.8333 118.5,99.5C 115.5,99.5 112.5,99.5 109.5,99.5C 109.768,101.099 109.434,102.432 108.5,103.5C 108.5,102.167 108.5,100.833 108.5,99.5C 107.167,99.5 105.833,99.5 104.5,99.5C 104.5,98.1667 104.5,96.8333 104.5,95.5C 101.05,96.2436 99.3838,94.9103 99.5,91.5C 98.5,91.5 97.5,91.5 96.5,91.5C 96.5,92.8333 96.5,94.1667 96.5,95.5C 94.901,95.7678 93.5676,95.4345 92.5,94.5C 89.4425,87.3623 91.7758,84.3623 99.5,85.5C 99.6573,81.7271 101.324,80.7271 104.5,82.5C 106.2,85.5989 105.2,87.5989 101.5,88.5C 104.824,89.1592 106.157,91.1592 105.5,94.5C 106.5,94.5 107.5,94.5 108.5,94.5C 108.5,91.5 108.5,88.5 108.5,85.5C 110.167,85.5 111.833,85.5 113.5,85.5C 113.5,84.5 113.5,83.5 113.5,82.5C 111.833,82.5 110.167,82.5 108.5,82.5C 108.5,81.1667 108.5,79.8333 108.5,78.5C 105.615,78.8064 102.948,78.4731 100.5,77.5C 103.167,77.5 105.833,77.5 108.5,77.5C 108.5,74.8333 108.5,72.1667 108.5,69.5 Z"/></g>
<g><path style="opacity:1" fill="#04503d" d="M 122.5,94.5 C 122.5,93.5 122.5,92.5 122.5,91.5C 123.5,91.5 124.5,91.5 125.5,91.5C 125.5,92.5 125.5,93.5 125.5,94.5C 124.5,94.5 123.5,94.5 122.5,94.5 Z"/></g>
<g><path style="opacity:1" fill="#f9fafa" d="M 101.5,91.5 C 102.5,91.5 103.5,91.5 104.5,91.5C 104.5,92.5 104.5,93.5 104.5,94.5C 103.5,94.5 102.5,94.5 101.5,94.5C 101.5,93.5 101.5,92.5 101.5,91.5 Z"/></g>
<g><path style="opacity:1" fill="#fdfdfd" d="M 92.5,94.5 C 92.5,92.1667 92.5,89.8333 92.5,87.5C 94.924,87.1924 97.2573,87.5258 99.5,88.5C 96.1763,89.1592 94.8429,91.1592 95.5,94.5C 94.5,94.5 93.5,94.5 92.5,94.5 Z"/></g>
<g><path style="opacity:1" fill="#f9fafa" d="M 104.5,82.5 C 104.5,83.5 104.5,84.5 104.5,85.5C 103.5,85.5 102.5,85.5 101.5,85.5C 101.5,84.5 101.5,83.5 101.5,82.5C 102.5,82.5 103.5,82.5 104.5,82.5 Z"/></g>
<g><path style="opacity:1" fill="#e0e9e7" d="M 113.5,78.5 C 113.5,79.5 113.5,80.5 113.5,81.5C 112.167,81.5 110.833,81.5 109.5,81.5C 109.5,80.5 109.5,79.5 109.5,78.5C 110.833,78.5 112.167,78.5 113.5,78.5 Z"/></g>
<g><path style="opacity:1" fill="#6c988d" d="M 177.5,93.5 C 177.389,94.1174 177.056,94.6174 176.5,95C 168.323,95.8228 160.323,95.6561 152.5,94.5C 160.888,94.7729 169.221,94.4396 177.5,93.5 Z"/></g>
<g><path style="opacity:1" fill="#f8fafa" d="M 105.5,95.5 C 106.5,95.5 107.5,95.5 108.5,95.5C 108.5,96.5 108.5,97.5 108.5,98.5C 107.5,98.5 106.5,98.5 105.5,98.5C 105.5,97.5 105.5,96.5 105.5,95.5 Z"/></g>
<g><path style="opacity:1" fill="#467d6f" d="M 92.5,99.5 C 92.1667,99.5 91.8333,99.5 91.5,99.5C 88.8333,99.5 86.1667,99.5 83.5,99.5C 83.5,100.833 83.5,102.167 83.5,103.5C 83.1667,103.5 82.8333,103.5 82.5,103.5C 82.5,101.833 82.5,100.167 82.5,98.5C 86.0419,98.1872 89.3752,98.5206 92.5,99.5 Z"/></g>
<g><path style="opacity:1" fill="#fefffe" d="M 57.5,100.5 C 58.5,100.5 59.5,100.5 60.5,100.5C 60.5,102.5 60.5,104.5 60.5,106.5C 59.5,106.5 58.5,106.5 57.5,106.5C 57.5,104.5 57.5,102.5 57.5,100.5 Z"/></g>
<g><path style="opacity:1" fill="#a4bfb8" d="M 57.5,100.5 C 58.9187,99.5489 60.5853,99.2155 62.5,99.5C 62.6641,102.187 62.4974,104.854 62,107.5C 59.9551,109.043 58.4551,108.71 57.5,106.5C 58.5,106.5 59.5,106.5 60.5,106.5C 60.5,104.5 60.5,102.5 60.5,100.5C 59.5,100.5 58.5,100.5 57.5,100.5 Z"/></g>
<g><path style="opacity:1" fill="#81a69d" d="M 70.5,103.5 C 69.596,102.791 69.2627,101.791 69.5,100.5C 68.5,100.5 67.5,100.5 66.5,100.5C 66.5,105.5 66.5,110.5 66.5,115.5C 67.8333,115.5 69.1667,115.5 70.5,115.5C 70.5,117.167 70.5,118.833 70.5,120.5C 69.596,119.791 69.2627,118.791 69.5,117.5C 68.1779,117.67 67.0113,117.337 66,116.5C 65.5006,110.843 65.3339,105.176 65.5,99.5C 67.1667,99.5 68.8333,99.5 70.5,99.5C 70.5,100.833 70.5,102.167 70.5,103.5 Z"/></g>
<g><path style="opacity:1" fill="#f4f7f7" d="M 70.5,103.5 C 71.8333,103.5 73.1667,103.5 74.5,103.5C 74.5,104.833 74.5,106.167 74.5,107.5C 71.0897,107.384 69.7564,109.05 70.5,112.5C 72.1667,112.5 73.8333,112.5 75.5,112.5C 75.5,111.167 75.5,109.833 75.5,108.5C 76.5,108.5 77.5,108.5 78.5,108.5C 78.5,111.167 78.5,113.833 78.5,116.5C 81.5,116.5 84.5,116.5 87.5,116.5C 87.5,117.833 87.5,119.167 87.5,120.5C 86.1667,120.5 84.8333,120.5 83.5,120.5C 83.5,121.833 83.5,123.167 83.5,124.5C 81.8333,124.5 80.1667,124.5 78.5,124.5C 78.5,125.833 78.5,127.167 78.5,128.5C 77.5,128.5 76.5,128.5 75.5,128.5C 75.5,125.833 75.5,123.167 75.5,120.5C 73.8333,120.5 72.1667,120.5 70.5,120.5C 70.5,118.833 70.5,117.167 70.5,115.5C 69.1667,115.5 67.8333,115.5 66.5,115.5C 66.5,110.5 66.5,105.5 66.5,100.5C 67.5,100.5 68.5,100.5 69.5,100.5C 69.2627,101.791 69.596,102.791 70.5,103.5 Z"/></g>
<g><path style="opacity:1" fill="#eff3f2" d="M 91.5,99.5 C 91.5,103.5 91.5,107.5 91.5,111.5C 88.8333,111.5 86.1667,111.5 83.5,111.5C 83.5,110.5 83.5,109.5 83.5,108.5C 85.099,108.768 86.4324,108.434 87.5,107.5C 87.5,106.167 87.5,104.833 87.5,103.5C 86.1667,103.5 84.8333,103.5 83.5,103.5C 83.5,102.167 83.5,100.833 83.5,99.5C 86.1667,99.5 88.8333,99.5 91.5,99.5 Z"/></g>
<g><path style="opacity:1" fill="#f0f4f3" d="M 182.5,111.5 C 181.167,111.5 179.833,111.5 178.5,111.5C 178.737,110.209 178.404,109.209 177.5,108.5C 176.791,107.596 175.791,107.263 174.5,107.5C 174.5,106.167 174.5,104.833 174.5,103.5C 175.833,103.5 177.167,103.5 178.5,103.5C 178.5,102.167 178.5,100.833 178.5,99.5C 179.833,99.5 181.167,99.5 182.5,99.5C 182.5,103.5 182.5,107.5 182.5,111.5 Z"/></g>
<g><path style="opacity:1" fill="#dae4e2" d="M 79.5,103.5 C 80.5,103.5 81.5,103.5 82.5,103.5C 82.8333,103.5 83.1667,103.5 83.5,103.5C 83.5,104.833 83.5,106.167 83.5,107.5C 82.1667,107.5 80.8333,107.5 79.5,107.5C 79.5,106.167 79.5,104.833 79.5,103.5 Z"/></g>
<g><path style="opacity:1" fill="#256555" d="M 83.5,103.5 C 84.8333,103.5 86.1667,103.5 87.5,103.5C 87.5,104.833 87.5,106.167 87.5,107.5C 86.1667,107.5 84.8333,107.5 83.5,107.5C 83.5,106.167 83.5,104.833 83.5,103.5 Z"/></g>
<g><path style="opacity:1" fill="#e2eae8" d="M 134.5,103.5 C 134.5,106.167 134.5,108.833 134.5,111.5C 133.5,111.5 132.5,111.5 131.5,111.5C 130.527,109.052 130.194,106.385 130.5,103.5C 131.833,103.5 133.167,103.5 134.5,103.5 Z"/></g>
<g><path style="opacity:1" fill="#92b2ab" d="M 134.5,103.5 C 135.477,106.287 135.81,109.287 135.5,112.5C 133.901,112.768 132.568,112.434 131.5,111.5C 132.5,111.5 133.5,111.5 134.5,111.5C 134.5,108.833 134.5,106.167 134.5,103.5 Z"/></g>
<g><path style="opacity:1" fill="#88aba2" d="M 173.5,103.5 C 173.5,102.5 173.5,101.5 173.5,100.5C 172.5,100.5 171.5,100.5 170.5,100.5C 170.5,101.5 170.5,102.5 170.5,103.5C 169.566,102.432 169.232,101.099 169.5,99.5C 171.167,99.5 172.833,99.5 174.5,99.5C 174.5,100.833 174.5,102.167 174.5,103.5C 174.5,104.833 174.5,106.167 174.5,107.5C 175.791,107.263 176.791,107.596 177.5,108.5C 176.5,108.5 175.5,108.5 174.5,108.5C 174.5,109.833 174.5,111.167 174.5,112.5C 173.167,112.5 171.833,112.5 170.5,112.5C 170.5,113.833 170.5,115.167 170.5,116.5C 168.5,116.5 166.5,116.5 164.5,116.5C 164.5,115.167 164.5,113.833 164.5,112.5C 163.5,112.5 162.5,112.5 161.5,112.5C 161.5,122.5 161.5,132.5 161.5,142.5C 161.5,145.5 161.5,148.5 161.5,151.5C 159.585,151.784 157.919,151.451 156.5,150.5C 157.833,150.5 159.167,150.5 160.5,150.5C 160.5,147.833 160.5,145.167 160.5,142.5C 160.5,132.5 160.5,122.5 160.5,112.5C 159.167,112.5 157.833,112.5 156.5,112.5C 157.568,111.566 158.901,111.232 160.5,111.5C 160.5,110.5 160.5,109.5 160.5,108.5C 157.615,108.806 154.948,108.473 152.5,107.5C 155.167,107.5 157.833,107.5 160.5,107.5C 160.5,105.167 160.5,102.833 160.5,100.5C 159.5,100.5 158.5,100.5 157.5,100.5C 157.737,101.791 157.404,102.791 156.5,103.5C 156.5,102.167 156.5,100.833 156.5,99.5C 158.167,99.5 159.833,99.5 161.5,99.5C 161.5,102.167 161.5,104.833 161.5,107.5C 165.5,107.5 169.5,107.5 173.5,107.5C 173.5,106.167 173.5,104.833 173.5,103.5 Z"/></g>
<g><path style="opacity:1" fill="#fcfcfc" d="M 173.5,103.5 C 172.5,103.5 171.5,103.5 170.5,103.5C 170.5,102.5 170.5,101.5 170.5,100.5C 171.5,100.5 172.5,100.5 173.5,100.5C 173.5,101.5 173.5,102.5 173.5,103.5 Z"/></g>
<g><path style="opacity:1" fill="#e6eeec" d="M 152.5,107.5 C 152.5,106.167 152.5,104.833 152.5,103.5C 153.833,103.5 155.167,103.5 156.5,103.5C 157.404,102.791 157.737,101.791 157.5,100.5C 158.5,100.5 159.5,100.5 160.5,100.5C 160.5,102.833 160.5,105.167 160.5,107.5C 157.833,107.5 155.167,107.5 152.5,107.5 Z"/></g>
<g><path style="opacity:1" fill="#6d988d" d="M 74.5,103.5 C 75.4345,104.568 75.7678,105.901 75.5,107.5C 76.5,107.5 77.5,107.5 78.5,107.5C 78.2322,105.901 78.5655,104.568 79.5,103.5C 79.5,104.833 79.5,106.167 79.5,107.5C 80.8333,107.5 82.1667,107.5 83.5,107.5C 84.8333,107.5 86.1667,107.5 87.5,107.5C 86.4324,108.434 85.099,108.768 83.5,108.5C 82.1667,108.5 80.8333,108.5 79.5,108.5C 79.5,110.833 79.5,113.167 79.5,115.5C 82.3854,115.194 85.0521,115.527 87.5,116.5C 84.5,116.5 81.5,116.5 78.5,116.5C 78.5,113.833 78.5,111.167 78.5,108.5C 77.5,108.5 76.5,108.5 75.5,108.5C 75.5,109.833 75.5,111.167 75.5,112.5C 73.8333,112.5 72.1667,112.5 70.5,112.5C 69.7564,109.05 71.0897,107.384 74.5,107.5C 74.5,106.167 74.5,104.833 74.5,103.5 Z"/></g>
<g><path style="opacity:1" fill="#7ca399" d="M 91.5,99.5 C 91.8333,99.5 92.1667,99.5 92.5,99.5C 92.5,103.5 92.5,107.5 92.5,111.5C 94.8333,111.5 97.1667,111.5 99.5,111.5C 99.5,110.167 99.5,108.833 99.5,107.5C 101.167,107.5 102.833,107.5 104.5,107.5C 104.232,105.901 104.566,104.568 105.5,103.5C 105.5,104.833 105.5,106.167 105.5,107.5C 110.833,107.5 116.167,107.5 121.5,107.5C 121.194,104.615 121.527,101.948 122.5,99.5C 122.5,102.167 122.5,104.833 122.5,107.5C 123.833,107.5 125.167,107.5 126.5,107.5C 126.5,109.167 126.5,110.833 126.5,112.5C 124.901,112.768 123.568,112.434 122.5,111.5C 121.596,110.791 121.263,109.791 121.5,108.5C 116.167,108.5 110.833,108.5 105.5,108.5C 105.5,109.5 105.5,110.5 105.5,111.5C 109.702,111.183 113.702,111.517 117.5,112.5C 113.5,112.5 109.5,112.5 105.5,112.5C 106.244,115.95 104.91,117.616 101.5,117.5C 101.5,118.5 101.5,119.5 101.5,120.5C 106.833,120.5 112.167,120.5 117.5,120.5C 112.36,121.488 107.026,121.821 101.5,121.5C 101.343,125.273 99.676,126.273 96.5,124.5C 97.5,124.5 98.5,124.5 99.5,124.5C 99.5,123.5 99.5,122.5 99.5,121.5C 98.5,121.5 97.5,121.5 96.5,121.5C 97.209,120.596 98.209,120.263 99.5,120.5C 99.5,119.5 99.5,118.5 99.5,117.5C 97.1432,117.663 94.8098,117.497 92.5,117C 91.6198,115.644 91.2865,114.144 91.5,112.5C 88.6146,112.806 85.9479,112.473 83.5,111.5C 86.1667,111.5 88.8333,111.5 91.5,111.5C 91.5,107.5 91.5,103.5 91.5,99.5 Z"/></g>
<g><path style="opacity:1" fill="#f7faf9" d="M 161.5,108.5 C 165.5,108.5 169.5,108.5 173.5,108.5C 173.5,109.5 173.5,110.5 173.5,111.5C 170.159,110.843 168.159,112.176 167.5,115.5C 166.841,112.176 164.841,110.843 161.5,111.5C 161.5,110.5 161.5,109.5 161.5,108.5 Z"/></g>
<g><path style="opacity:1" fill="#eef3f2" d="M 101.5,108.5 C 102.5,108.5 103.5,108.5 104.5,108.5C 104.5,109.5 104.5,110.5 104.5,111.5C 103.5,111.5 102.5,111.5 101.5,111.5C 101.5,110.5 101.5,109.5 101.5,108.5 Z"/></g>
<g><path style="opacity:1" fill="#eff4f3" d="M 122.5,111.5 C 122.5,110.5 122.5,109.5 122.5,108.5C 123.5,108.5 124.5,108.5 125.5,108.5C 125.5,109.5 125.5,110.5 125.5,111.5C 124.5,111.5 123.5,111.5 122.5,111.5 Z"/></g>
<g><path style="opacity:1" fill="#b3aeaa" d="M 220.5,41.5 C 221.167,41.5 221.833,41.5 222.5,41.5C 222.5,126.5 222.5,211.5 222.5,296.5C 222.167,296.5 221.833,296.5 221.5,296.5C 221.823,211.478 221.489,126.478 220.5,41.5 Z"/></g>
<g><path style="opacity:1" fill="#89ada3" d="M 177.5,108.5 C 178.404,109.209 178.737,110.209 178.5,111.5C 179.833,111.5 181.167,111.5 182.5,111.5C 181.081,112.451 179.415,112.784 177.5,112.5C 177.5,111.167 177.5,109.833 177.5,108.5 Z"/></g>
<g><path style="opacity:1" fill="#fdfefe" d="M 92.5,112.5 C 94.8333,112.5 97.1667,112.5 99.5,112.5C 99.5,113.5 99.5,114.5 99.5,115.5C 97.1667,115.5 94.8333,115.5 92.5,115.5C 92.5,114.5 92.5,113.5 92.5,112.5 Z"/></g>
<g><path style="opacity:1" fill="#05503e" d="M 101.5,112.5 C 102.5,112.5 103.5,112.5 104.5,112.5C 104.5,113.5 104.5,114.5 104.5,115.5C 103.5,115.5 102.5,115.5 101.5,115.5C 101.5,114.5 101.5,113.5 101.5,112.5 Z"/></g>
<g><path style="opacity:1" fill="#fafcfb" d="M 117.5,112.5 C 117.5,115.167 117.5,117.833 117.5,120.5C 112.167,120.5 106.833,120.5 101.5,120.5C 101.5,119.5 101.5,118.5 101.5,117.5C 104.91,117.616 106.244,115.95 105.5,112.5C 109.5,112.5 113.5,112.5 117.5,112.5 Z"/></g>
<g><path style="opacity:1" fill="#f1f5f4" d="M 156.5,112.5 C 157.833,112.5 159.167,112.5 160.5,112.5C 160.5,122.5 160.5,132.5 160.5,142.5C 159.167,142.5 157.833,142.5 156.5,142.5C 156.5,145.167 156.5,147.833 156.5,150.5C 157.919,151.451 159.585,151.784 161.5,151.5C 161.5,148.5 161.5,145.5 161.5,142.5C 164.167,142.5 166.833,142.5 169.5,142.5C 169.5,143.833 169.5,145.167 169.5,146.5C 168.167,146.5 166.833,146.5 165.5,146.5C 165.5,148.167 165.5,149.833 165.5,151.5C 166.833,151.5 168.167,151.5 169.5,151.5C 169.5,152.833 169.5,154.167 169.5,155.5C 170.833,155.5 172.167,155.5 173.5,155.5C 173.5,156.833 173.5,158.167 173.5,159.5C 170.833,159.5 168.167,159.5 165.5,159.5C 165.5,162.5 165.5,165.5 165.5,168.5C 166.833,168.5 168.167,168.5 169.5,168.5C 169.5,169.833 169.5,171.167 169.5,172.5C 172.5,172.5 175.5,172.5 178.5,172.5C 178.5,173.833 178.5,175.167 178.5,176.5C 179.833,176.5 181.167,176.5 182.5,176.5C 182.5,177.833 182.5,179.167 182.5,180.5C 179.833,180.5 177.167,180.5 174.5,180.5C 174.5,179.167 174.5,177.833 174.5,176.5C 171.167,176.5 167.833,176.5 164.5,176.5C 164.5,177.833 164.5,179.167 164.5,180.5C 163.5,180.5 162.5,180.5 161.5,180.5C 161.5,177.833 161.5,175.167 161.5,172.5C 158.5,172.5 155.5,172.5 152.5,172.5C 152.5,173.833 152.5,175.167 152.5,176.5C 149.5,176.5 146.5,176.5 143.5,176.5C 143.5,175.167 143.5,173.833 143.5,172.5C 142.167,172.5 140.833,172.5 139.5,172.5C 139.5,170.833 139.5,169.167 139.5,167.5C 138.167,167.5 136.833,167.5 135.5,167.5C 135.5,166.167 135.5,164.833 135.5,163.5C 133.833,163.5 132.167,163.5 130.5,163.5C 130.5,166.5 130.5,169.5 130.5,172.5C 129.167,172.5 127.833,172.5 126.5,172.5C 126.5,171.167 126.5,169.833 126.5,168.5C 125.167,168.5 123.833,168.5 122.5,168.5C 121.532,170.607 121.198,172.941 121.5,175.5C 120.167,175.5 118.833,175.5 117.5,175.5C 117.5,177.167 117.5,178.833 117.5,180.5C 116.167,180.5 114.833,180.5 113.5,180.5C 113.5,176.5 113.5,172.5 113.5,168.5C 114.833,168.5 116.167,168.5 117.5,168.5C 117.5,167.167 117.5,165.833 117.5,164.5C 114.713,163.523 111.713,163.19 108.5,163.5C 108.5,166.5 108.5,169.5 108.5,172.5C 107.167,172.5 105.833,172.5 104.5,172.5C 104.5,173.833 104.5,175.167 104.5,176.5C 101.833,176.5 99.1667,176.5 96.5,176.5C 96.5,175.167 96.5,173.833 96.5,172.5C 97.8333,172.5 99.1667,172.5 100.5,172.5C 100.5,171.167 100.5,169.833 100.5,168.5C 101.833,168.5 103.167,168.5 104.5,168.5C 105.485,164.366 105.818,160.032 105.5,155.5C 106.5,155.5 107.5,155.5 108.5,155.5C 108.5,157.167 108.5,158.833 108.5,160.5C 112.833,160.5 117.167,160.5 121.5,160.5C 121.263,161.791 121.596,162.791 122.5,163.5C 123.833,163.5 125.167,163.5 126.5,163.5C 126.5,160.5 126.5,157.5 126.5,154.5C 125.167,154.5 123.833,154.5 122.5,154.5C 122.5,153.5 122.5,152.5 122.5,151.5C 125.167,151.5 127.833,151.5 130.5,151.5C 130.194,154.385 130.527,157.052 131.5,159.5C 133.833,159.5 136.167,159.5 138.5,159.5C 138.833,159.5 139.167,159.5 139.5,159.5C 139.5,156.5 139.5,153.5 139.5,150.5C 138.167,150.5 136.833,150.5 135.5,150.5C 135.5,149.5 135.5,148.5 135.5,147.5C 137.099,147.768 138.432,147.434 139.5,146.5C 139.5,145.167 139.5,143.833 139.5,142.5C 137.052,141.527 134.385,141.194 131.5,141.5C 131.5,139.167 131.5,136.833 131.5,134.5C 132.5,134.5 133.5,134.5 134.5,134.5C 134.232,136.099 134.566,137.432 135.5,138.5C 136.833,138.5 138.167,138.5 139.5,138.5C 140.434,137.432 140.768,136.099 140.5,134.5C 141.5,134.5 142.5,134.5 143.5,134.5C 143.5,135.833 143.5,137.167 143.5,138.5C 146.713,138.81 149.713,138.477 152.5,137.5C 152.5,136.167 152.5,134.833 152.5,133.5C 149.833,133.5 147.167,133.5 144.5,133.5C 144.5,132.5 144.5,131.5 144.5,130.5C 145.791,130.737 146.791,130.404 147.5,129.5C 148.434,128.432 148.768,127.099 148.5,125.5C 150.099,125.768 151.432,125.434 152.5,124.5C 152.5,121.833 152.5,119.167 152.5,116.5C 153.833,116.5 155.167,116.5 156.5,116.5C 156.5,115.167 156.5,113.833 156.5,112.5 Z"/></g>
<g><path style="opacity:1" fill="#a7c2bb" d="M 122.5,117.5 C 125.287,116.523 128.287,116.19 131.5,116.5C 131.5,119.167 131.5,121.833 131.5,124.5C 129.656,122.721 128.99,120.388 129.5,117.5C 127.167,117.5 124.833,117.5 122.5,117.5 Z"/></g>
<g><path style="opacity:1" fill="#edf2f1" d="M 61.5,116.5 C 61.5,119.5 61.5,122.5 61.5,125.5C 62.8333,125.5 64.1667,125.5 65.5,125.5C 65.5,126.833 65.5,128.167 65.5,129.5C 62.8333,129.5 60.1667,129.5 57.5,129.5C 57.5,125.167 57.5,120.833 57.5,116.5C 58.8333,116.5 60.1667,116.5 61.5,116.5 Z"/></g>
<g><path style="opacity:1" fill="#f1f5f4" d="M 122.5,117.5 C 124.833,117.5 127.167,117.5 129.5,117.5C 128.99,120.388 129.656,122.721 131.5,124.5C 132.209,125.404 133.209,125.737 134.5,125.5C 134.5,126.833 134.5,128.167 134.5,129.5C 133.167,129.5 131.833,129.5 130.5,129.5C 130.5,130.833 130.5,132.167 130.5,133.5C 127.833,133.5 125.167,133.5 122.5,133.5C 121.527,135.948 121.194,138.615 121.5,141.5C 116.167,141.5 110.833,141.5 105.5,141.5C 105.5,140.5 105.5,139.5 105.5,138.5C 108.167,138.5 110.833,138.5 113.5,138.5C 113.5,136.833 113.5,135.167 113.5,133.5C 114.833,133.5 116.167,133.5 117.5,133.5C 117.5,132.5 117.5,131.5 117.5,130.5C 114.713,129.523 111.713,129.19 108.5,129.5C 108.5,130.833 108.5,132.167 108.5,133.5C 105.833,133.5 103.167,133.5 100.5,133.5C 100.5,134.833 100.5,136.167 100.5,137.5C 97.8333,137.5 95.1667,137.5 92.5,137.5C 92.5,136.167 92.5,134.833 92.5,133.5C 93.8333,133.5 95.1667,133.5 96.5,133.5C 96.5,132.167 96.5,130.833 96.5,129.5C 99.1667,129.5 101.833,129.5 104.5,129.5C 105.434,128.432 105.768,127.099 105.5,125.5C 110.833,125.5 116.167,125.5 121.5,125.5C 121.5,126.833 121.5,128.167 121.5,129.5C 123.167,129.5 124.833,129.5 126.5,129.5C 126.5,126.5 126.5,123.5 126.5,120.5C 125.167,120.5 123.833,120.5 122.5,120.5C 122.5,119.5 122.5,118.5 122.5,117.5 Z"/></g>
<g><path style="opacity:1" fill="#0e5442" d="M 152.5,116.5 C 152.5,119.167 152.5,121.833 152.5,124.5C 150.833,124.5 149.167,124.5 147.5,124.5C 147.5,125.833 147.5,127.167 147.5,128.5C 146.5,128.5 145.5,128.5 144.5,128.5C 144.5,126.167 144.5,123.833 144.5,121.5C 145.791,121.737 146.791,121.404 147.5,120.5C 148.434,119.432 148.768,118.099 148.5,116.5C 149.833,116.5 151.167,116.5 152.5,116.5 Z"/></g>
<g><path style="opacity:1" fill="#e7eeec" d="M 178.5,116.5 C 179.833,116.5 181.167,116.5 182.5,116.5C 182.5,120.833 182.5,125.167 182.5,129.5C 180.833,129.5 179.167,129.5 177.5,129.5C 177.5,128.167 177.5,126.833 177.5,125.5C 176.791,124.596 175.791,124.263 174.5,124.5C 174.5,123.167 174.5,121.833 174.5,120.5C 175.833,120.5 177.167,120.5 178.5,120.5C 178.5,119.167 178.5,117.833 178.5,116.5 Z"/></g>
<g><path style="opacity:1" fill="#fefffe" d="M 96.5,121.5 C 97.5,121.5 98.5,121.5 99.5,121.5C 99.5,122.5 99.5,123.5 99.5,124.5C 98.5,124.5 97.5,124.5 96.5,124.5C 96.5,123.5 96.5,122.5 96.5,121.5 Z"/></g>
<g><path style="opacity:1" fill="#659287" d="M 143.5,116.5 C 144.434,117.568 144.768,118.901 144.5,120.5C 145.5,120.5 146.5,120.5 147.5,120.5C 146.791,121.404 145.791,121.737 144.5,121.5C 144.5,123.833 144.5,126.167 144.5,128.5C 145.5,128.5 146.5,128.5 147.5,128.5C 147.5,127.167 147.5,125.833 147.5,124.5C 149.167,124.5 150.833,124.5 152.5,124.5C 151.432,125.434 150.099,125.768 148.5,125.5C 148.768,127.099 148.434,128.432 147.5,129.5C 145.901,129.768 144.568,129.434 143.5,128.5C 143.5,126.167 143.5,123.833 143.5,121.5C 142.5,121.5 141.5,121.5 140.5,121.5C 139.527,123.948 139.194,126.615 139.5,129.5C 137.901,129.768 136.568,129.434 135.5,128.5C 136.5,128.5 137.5,128.5 138.5,128.5C 138.5,125.833 138.5,123.167 138.5,120.5C 140.167,120.5 141.833,120.5 143.5,120.5C 143.5,119.167 143.5,117.833 143.5,116.5 Z"/></g>
<g><path style="opacity:1" fill="#fefefe" d="M 140.5,121.5 C 141.5,121.5 142.5,121.5 143.5,121.5C 143.5,123.833 143.5,126.167 143.5,128.5C 142.5,128.5 141.5,128.5 140.5,128.5C 140.5,126.167 140.5,123.833 140.5,121.5 Z"/></g>
<g><path style="opacity:1" fill="#8bada5" d="M 70.5,120.5 C 72.1667,120.5 73.8333,120.5 75.5,120.5C 75.5,123.167 75.5,125.833 75.5,128.5C 76.5,128.5 77.5,128.5 78.5,128.5C 78.5,127.167 78.5,125.833 78.5,124.5C 80.1667,124.5 81.8333,124.5 83.5,124.5C 84.8333,124.5 86.1667,124.5 87.5,124.5C 88.8333,124.5 90.1667,124.5 91.5,124.5C 90.4324,125.434 89.099,125.768 87.5,125.5C 86.1667,125.5 84.8333,125.5 83.5,125.5C 82.1667,125.5 80.8333,125.5 79.5,125.5C 79.7678,127.099 79.4345,128.432 78.5,129.5C 77.1667,129.5 75.8333,129.5 74.5,129.5C 74.8064,126.615 74.4731,123.948 73.5,121.5C 72.209,121.737 71.209,121.404 70.5,120.5 Z"/></g>
<g><path style="opacity:1" fill="#779f95" d="M 122.5,120.5 C 123.833,120.5 125.167,120.5 126.5,120.5C 126.5,123.5 126.5,126.5 126.5,129.5C 124.833,129.5 123.167,129.5 121.5,129.5C 121.5,128.167 121.5,126.833 121.5,125.5C 116.167,125.5 110.833,125.5 105.5,125.5C 105.768,127.099 105.434,128.432 104.5,129.5C 104.5,127.833 104.5,126.167 104.5,124.5C 110.5,124.5 116.5,124.5 122.5,124.5C 122.5,125.833 122.5,127.167 122.5,128.5C 123.5,128.5 124.5,128.5 125.5,128.5C 125.5,126.167 125.5,123.833 125.5,121.5C 124.209,121.737 123.209,121.404 122.5,120.5 Z"/></g>
<g><path style="opacity:1" fill="#90b1a9" d="M 140.5,121.5 C 140.5,123.833 140.5,126.167 140.5,128.5C 141.5,128.5 142.5,128.5 143.5,128.5C 144.568,129.434 145.901,129.768 147.5,129.5C 146.791,130.404 145.791,130.737 144.5,130.5C 144.5,131.5 144.5,132.5 144.5,133.5C 144.5,134.833 144.5,136.167 144.5,137.5C 147.167,137.5 149.833,137.5 152.5,137.5C 149.713,138.477 146.713,138.81 143.5,138.5C 143.5,137.167 143.5,135.833 143.5,134.5C 142.5,134.5 141.5,134.5 140.5,134.5C 140.768,136.099 140.434,137.432 139.5,138.5C 139.784,136.585 139.451,134.919 138.5,133.5C 138.5,132.5 138.5,131.5 138.5,130.5C 137.5,130.5 136.5,130.5 135.5,130.5C 135.5,131.5 135.5,132.5 135.5,133.5C 135.5,135.167 135.5,136.833 135.5,138.5C 134.566,137.432 134.232,136.099 134.5,134.5C 133.5,134.5 132.5,134.5 131.5,134.5C 131.5,136.833 131.5,139.167 131.5,141.5C 134.385,141.194 137.052,141.527 139.5,142.5C 136.5,142.5 133.5,142.5 130.5,142.5C 130.5,139.5 130.5,136.5 130.5,133.5C 130.5,132.167 130.5,130.833 130.5,129.5C 131.833,129.5 133.167,129.5 134.5,129.5C 134.5,128.167 134.5,126.833 134.5,125.5C 133.209,125.737 132.209,125.404 131.5,124.5C 132.833,124.5 134.167,124.5 135.5,124.5C 135.5,125.833 135.5,127.167 135.5,128.5C 136.568,129.434 137.901,129.768 139.5,129.5C 139.194,126.615 139.527,123.948 140.5,121.5 Z"/></g>
<g><path style="opacity:1" fill="#4c8072" d="M 178.5,116.5 C 178.5,117.833 178.5,119.167 178.5,120.5C 177.167,120.5 175.833,120.5 174.5,120.5C 174.5,121.833 174.5,123.167 174.5,124.5C 175.791,124.263 176.791,124.596 177.5,125.5C 176.178,125.33 175.011,125.663 174,126.5C 173.503,124.19 173.337,121.857 173.5,119.5C 174.833,119.5 176.167,119.5 177.5,119.5C 177.263,118.209 177.596,117.209 178.5,116.5 Z"/></g>
<g><path style="opacity:1" fill="#5d8d81" d="M 61.5,116.5 C 62.4731,118.948 62.8064,121.615 62.5,124.5C 63.8333,124.5 65.1667,124.5 66.5,124.5C 66.5,125.833 66.5,127.167 66.5,128.5C 68.8333,128.5 71.1667,128.5 73.5,128.5C 73.5,126.167 73.5,123.833 73.5,121.5C 74.4731,123.948 74.8064,126.615 74.5,129.5C 71.8333,129.5 69.1667,129.5 66.5,129.5C 66.5,130.833 66.5,132.167 66.5,133.5C 65.596,132.791 65.2627,131.791 65.5,130.5C 62.6146,130.806 59.9479,130.473 57.5,129.5C 60.1667,129.5 62.8333,129.5 65.5,129.5C 65.5,128.167 65.5,126.833 65.5,125.5C 64.1667,125.5 62.8333,125.5 61.5,125.5C 61.5,122.5 61.5,119.5 61.5,116.5 Z"/></g>
<g><path style="opacity:1" fill="#105543" d="M 83.5,125.5 C 83.5,126.833 83.5,128.167 83.5,129.5C 84.8333,129.5 86.1667,129.5 87.5,129.5C 87.5,130.833 87.5,132.167 87.5,133.5C 86.1667,133.5 84.8333,133.5 83.5,133.5C 83.5,134.833 83.5,136.167 83.5,137.5C 80.8333,137.5 78.1667,137.5 75.5,137.5C 75.5,135.167 75.5,132.833 75.5,130.5C 76.791,130.737 77.791,130.404 78.5,129.5C 79.4345,128.432 79.7678,127.099 79.5,125.5C 80.8333,125.5 82.1667,125.5 83.5,125.5 Z"/></g>
<g><path style="opacity:1" fill="#d7e2e0" d="M 83.5,125.5 C 84.8333,125.5 86.1667,125.5 87.5,125.5C 87.5,126.833 87.5,128.167 87.5,129.5C 86.1667,129.5 84.8333,129.5 83.5,129.5C 83.5,128.167 83.5,126.833 83.5,125.5 Z"/></g>
<g><path style="opacity:1" fill="#3c7465" d="M 87.5,120.5 C 89.1667,120.5 90.8333,120.5 92.5,120.5C 92.5,122.5 92.5,124.5 92.5,126.5C 91.0222,126.238 89.6888,126.571 88.5,127.5C 89.9492,128.172 91.2825,128.839 92.5,129.5C 92.1667,129.5 91.8333,129.5 91.5,129.5C 90.1667,129.5 88.8333,129.5 87.5,129.5C 87.5,128.167 87.5,126.833 87.5,125.5C 89.099,125.768 90.4324,125.434 91.5,124.5C 91.5,123.5 91.5,122.5 91.5,121.5C 90.1667,121.5 88.8333,121.5 87.5,121.5C 87.5,122.5 87.5,123.5 87.5,124.5C 86.1667,124.5 84.8333,124.5 83.5,124.5C 83.5,123.167 83.5,121.833 83.5,120.5C 84.8333,120.5 86.1667,120.5 87.5,120.5 Z"/></g>
<g><path style="opacity:1" fill="#ecf1f0" d="M 91.5,124.5 C 90.1667,124.5 88.8333,124.5 87.5,124.5C 87.5,123.5 87.5,122.5 87.5,121.5C 88.8333,121.5 90.1667,121.5 91.5,121.5C 91.5,122.5 91.5,123.5 91.5,124.5 Z"/></g>
<g><path style="opacity:1" fill="#508476" d="M 117.5,130.5 C 115.167,130.5 112.833,130.5 110.5,130.5C 110.715,132.179 110.048,133.179 108.5,133.5C 110.048,133.179 110.715,132.179 110.5,130.5C 112.833,130.5 115.167,130.5 117.5,130.5 Z"/></g>
<g><path style="opacity:1" fill="#e9efee" d="M 74.5,129.5 C 74.5,132.5 74.5,135.5 74.5,138.5C 77.5,138.5 80.5,138.5 83.5,138.5C 83.5,139.833 83.5,141.167 83.5,142.5C 79.1667,142.5 74.8333,142.5 70.5,142.5C 70.5,143.833 70.5,145.167 70.5,146.5C 66.1667,146.5 61.8333,146.5 57.5,146.5C 57.5,145.167 57.5,143.833 57.5,142.5C 60.5,142.5 63.5,142.5 66.5,142.5C 66.5,141.167 66.5,139.833 66.5,138.5C 67.8333,138.5 69.1667,138.5 70.5,138.5C 70.7845,136.585 70.4511,134.919 69.5,133.5C 68.5,133.5 67.5,133.5 66.5,133.5C 66.5,132.167 66.5,130.833 66.5,129.5C 69.1667,129.5 71.8333,129.5 74.5,129.5 Z"/></g>
<g><path style="opacity:1" fill="#185a48" d="M 117.5,130.5 C 117.5,131.5 117.5,132.5 117.5,133.5C 116.167,133.5 114.833,133.5 113.5,133.5C 113.5,135.167 113.5,136.833 113.5,138.5C 110.833,138.5 108.167,138.5 105.5,138.5C 104.566,139.568 104.232,140.901 104.5,142.5C 103.167,142.5 101.833,142.5 100.5,142.5C 100.5,143.833 100.5,145.167 100.5,146.5C 97.8333,146.5 95.1667,146.5 92.5,146.5C 92.5,143.833 92.5,141.167 92.5,138.5C 95.3854,138.806 98.0521,138.473 100.5,137.5C 100.5,136.167 100.5,134.833 100.5,133.5C 103.167,133.5 105.833,133.5 108.5,133.5C 110.048,133.179 110.715,132.179 110.5,130.5C 112.833,130.5 115.167,130.5 117.5,130.5 Z"/></g>
<g><path style="opacity:1" fill="#04503d" d="M 131.5,130.5 C 132.5,130.5 133.5,130.5 134.5,130.5C 134.5,131.5 134.5,132.5 134.5,133.5C 133.5,133.5 132.5,133.5 131.5,133.5C 131.5,132.5 131.5,131.5 131.5,130.5 Z"/></g>
<g><path style="opacity:1" fill="#04503d" d="M 140.5,130.5 C 141.5,130.5 142.5,130.5 143.5,130.5C 143.5,131.5 143.5,132.5 143.5,133.5C 142.5,133.5 141.5,133.5 140.5,133.5C 140.5,132.5 140.5,131.5 140.5,130.5 Z"/></g>
<g><path style="opacity:1" fill="#3a3735" d="M 19.5,41.5 C 19.3333,125.834 19.5,210.167 20,294.5C 20.9947,295.066 21.828,295.733 22.5,296.5C 21.1667,296.5 19.8333,296.5 18.5,296.5C 18.5,296.167 18.5,295.833 18.5,295.5C 18.5,287.5 18.5,279.5 18.5,271.5C 18.5,264.167 18.5,256.833 18.5,249.5C 18.5,186.167 18.5,122.833 18.5,59.5C 18.5,58.1667 18.5,56.8333 18.5,55.5C 18.1805,50.6367 18.5139,45.97 19.5,41.5 Z"/></g>
<g><path style="opacity:1" fill="#f0f4f3" d="M 138.5,133.5 C 137.5,133.5 136.5,133.5 135.5,133.5C 135.5,132.5 135.5,131.5 135.5,130.5C 136.5,130.5 137.5,130.5 138.5,130.5C 138.5,131.5 138.5,132.5 138.5,133.5 Z"/></g>
<g><path style="opacity:1" fill="#246453" d="M 152.5,133.5 C 152.5,132.167 152.5,130.833 152.5,129.5C 153.833,129.5 155.167,129.5 156.5,129.5C 156.5,130.833 156.5,132.167 156.5,133.5C 155.167,133.5 153.833,133.5 152.5,133.5 Z"/></g>
<g><path style="opacity:1" fill="#1b5d4c" d="M 144.5,133.5 C 147.167,133.5 149.833,133.5 152.5,133.5C 152.5,134.833 152.5,136.167 152.5,137.5C 149.833,137.5 147.167,137.5 144.5,137.5C 144.5,136.167 144.5,134.833 144.5,133.5 Z"/></g>
<g><path style="opacity:1" fill="#f5f8f7" d="M 57.5,134.5 C 58.5,134.5 59.5,134.5 60.5,134.5C 60.5,135.5 60.5,136.5 60.5,137.5C 59.5,137.5 58.5,137.5 57.5,137.5C 57.5,136.5 57.5,135.5 57.5,134.5 Z"/></g>
<g><path style="opacity:1" fill="#f8faf9" d="M 182.5,145.5 C 181.5,145.5 180.5,145.5 179.5,145.5C 179.715,143.821 179.048,142.821 177.5,142.5C 175.393,141.532 173.059,141.198 170.5,141.5C 170.5,140.5 170.5,139.5 170.5,138.5C 172.857,138.663 175.19,138.497 177.5,138C 178.38,136.644 178.714,135.144 178.5,133.5C 179.833,133.5 181.167,133.5 182.5,133.5C 182.5,137.5 182.5,141.5 182.5,145.5 Z"/></g>
<g><path style="opacity:1" fill="#8dafa6" d="M 57.5,134.5 C 58.9187,133.549 60.5853,133.216 62.5,133.5C 62.5,135.167 62.5,136.833 62.5,138.5C 60.5853,138.784 58.9187,138.451 57.5,137.5C 58.5,137.5 59.5,137.5 60.5,137.5C 60.5,136.5 60.5,135.5 60.5,134.5C 59.5,134.5 58.5,134.5 57.5,134.5 Z"/></g>
<g><path style="opacity:1" fill="#749e93" d="M 69.5,133.5 C 70.4511,134.919 70.7845,136.585 70.5,138.5C 69.1667,138.5 67.8333,138.5 66.5,138.5C 67.209,137.596 68.209,137.263 69.5,137.5C 69.5,136.167 69.5,134.833 69.5,133.5 Z"/></g>
<g><path style="opacity:1" fill="#79a197" d="M 74.5,129.5 C 75.8333,129.5 77.1667,129.5 78.5,129.5C 77.791,130.404 76.791,130.737 75.5,130.5C 75.5,132.833 75.5,135.167 75.5,137.5C 78.1667,137.5 80.8333,137.5 83.5,137.5C 84.8333,137.5 86.1667,137.5 87.5,137.5C 88.8333,137.5 90.1667,137.5 91.5,137.5C 91.5,136.167 91.5,134.833 91.5,133.5C 91.5,132.167 91.5,130.833 91.5,129.5C 91.8333,129.5 92.1667,129.5 92.5,129.5C 92.5,130.833 92.5,132.167 92.5,133.5C 92.5,134.833 92.5,136.167 92.5,137.5C 95.1667,137.5 97.8333,137.5 100.5,137.5C 98.0521,138.473 95.3854,138.806 92.5,138.5C 92.5,141.167 92.5,143.833 92.5,146.5C 95.1667,146.5 97.8333,146.5 100.5,146.5C 98.0521,147.473 95.3854,147.806 92.5,147.5C 92.5,148.833 92.5,150.167 92.5,151.5C 89.5,151.5 86.5,151.5 83.5,151.5C 82.1667,151.5 80.8333,151.5 79.5,151.5C 79.7373,152.791 79.404,153.791 78.5,154.5C 78.5,153.5 78.5,152.5 78.5,151.5C 75.8333,151.5 73.1667,151.5 70.5,151.5C 72.9479,150.527 75.6146,150.194 78.5,150.5C 78.2627,149.209 78.596,148.209 79.5,147.5C 80.5676,146.566 81.901,146.232 83.5,146.5C 86.1667,146.5 88.8333,146.5 91.5,146.5C 91.5,143.833 91.5,141.167 91.5,138.5C 90.1667,138.5 88.8333,138.5 87.5,138.5C 87.5,139.833 87.5,141.167 87.5,142.5C 86.1667,142.5 84.8333,142.5 83.5,142.5C 83.5,141.167 83.5,139.833 83.5,138.5C 80.5,138.5 77.5,138.5 74.5,138.5C 74.5,135.5 74.5,132.5 74.5,129.5 Z"/></g>
<g><path style="opacity:1" fill="#276757" d="M 87.5,133.5 C 88.8333,133.5 90.1667,133.5 91.5,133.5C 91.5,134.833 91.5,136.167 91.5,137.5C 90.1667,137.5 88.8333,137.5 87.5,137.5C 87.5,136.167 87.5,134.833 87.5,133.5 Z"/></g>
<g><path style="opacity:1" fill="#dae5e3" d="M 87.5,133.5 C 87.5,134.833 87.5,136.167 87.5,137.5C 86.1667,137.5 84.8333,137.5 83.5,137.5C 83.5,136.167 83.5,134.833 83.5,133.5C 84.8333,133.5 86.1667,133.5 87.5,133.5 Z"/></g>
<g><path style="opacity:1" fill="#dce6e4" d="M 87.5,129.5 C 88.8333,129.5 90.1667,129.5 91.5,129.5C 91.5,130.833 91.5,132.167 91.5,133.5C 90.1667,133.5 88.8333,133.5 87.5,133.5C 87.5,132.167 87.5,130.833 87.5,129.5 Z"/></g>
<g><path style="opacity:1" fill="#528477" d="M 135.5,133.5 C 136.5,133.5 137.5,133.5 138.5,133.5C 139.451,134.919 139.784,136.585 139.5,138.5C 138.167,138.5 136.833,138.5 135.5,138.5C 135.5,136.833 135.5,135.167 135.5,133.5 Z"/></g>
<g><path style="opacity:1" fill="#eaf0ef" d="M 83.5,146.5 C 83.5,145.167 83.5,143.833 83.5,142.5C 84.8333,142.5 86.1667,142.5 87.5,142.5C 87.5,141.167 87.5,139.833 87.5,138.5C 88.8333,138.5 90.1667,138.5 91.5,138.5C 91.5,141.167 91.5,143.833 91.5,146.5C 88.8333,146.5 86.1667,146.5 83.5,146.5 Z"/></g>
<g><path style="opacity:1" fill="#a1bdb6" d="M 170.5,138.5 C 170.5,139.5 170.5,140.5 170.5,141.5C 173.059,141.198 175.393,141.532 177.5,142.5C 175.167,142.5 172.833,142.5 170.5,142.5C 170.768,144.099 170.434,145.432 169.5,146.5C 169.5,145.167 169.5,143.833 169.5,142.5C 169.232,140.901 169.566,139.568 170.5,138.5 Z"/></g>
<g><path style="opacity:1" fill="#f3f7f6" d="M 104.5,142.5 C 104.5,144.167 104.5,145.833 104.5,147.5C 105.833,147.5 107.167,147.5 108.5,147.5C 108.5,148.5 108.5,149.5 108.5,150.5C 104.298,150.183 100.298,150.517 96.5,151.5C 96.5,152.833 96.5,154.167 96.5,155.5C 97.8333,155.5 99.1667,155.5 100.5,155.5C 100.5,156.833 100.5,158.167 100.5,159.5C 99.1667,159.5 97.8333,159.5 96.5,159.5C 96.5,160.833 96.5,162.167 96.5,163.5C 95.1667,163.5 93.8333,163.5 92.5,163.5C 92.5,160.5 92.5,157.5 92.5,154.5C 89.5,154.5 86.5,154.5 83.5,154.5C 83.5,153.5 83.5,152.5 83.5,151.5C 86.5,151.5 89.5,151.5 92.5,151.5C 92.5,150.167 92.5,148.833 92.5,147.5C 95.3854,147.806 98.0521,147.473 100.5,146.5C 100.5,145.167 100.5,143.833 100.5,142.5C 101.833,142.5 103.167,142.5 104.5,142.5 Z"/></g>
<g><path style="opacity:1" fill="#dbe5e2" d="M 122.5,142.5 C 123.833,142.5 125.167,142.5 126.5,142.5C 126.5,143.833 126.5,145.167 126.5,146.5C 125.167,146.5 123.833,146.5 122.5,146.5C 122.5,145.167 122.5,143.833 122.5,142.5 Z"/></g>
<g><path style="opacity:1" fill="#1a5d4c" d="M 160.5,142.5 C 160.5,145.167 160.5,147.833 160.5,150.5C 159.167,150.5 157.833,150.5 156.5,150.5C 156.5,147.833 156.5,145.167 156.5,142.5C 157.833,142.5 159.167,142.5 160.5,142.5 Z"/></g>
<g><path style="opacity:1" fill="#94b4ab" d="M 177.5,142.5 C 179.048,142.821 179.715,143.821 179.5,145.5C 180.5,145.5 181.5,145.5 182.5,145.5C 181.796,147.344 180.463,147.844 178.5,147C 177.62,145.644 177.286,144.144 177.5,142.5 Z"/></g>
<g><path style="opacity:1" fill="#f5f8f7" d="M 79.5,147.5 C 80.5,147.5 81.5,147.5 82.5,147.5C 82.5,148.5 82.5,149.5 82.5,150.5C 81.5,150.5 80.5,150.5 79.5,150.5C 79.5,149.5 79.5,148.5 79.5,147.5 Z"/></g>
<g><path style="opacity:1" fill="#0a5340" d="M 83.5,147.5 C 86.1667,147.5 88.8333,147.5 91.5,147.5C 91.5,148.5 91.5,149.5 91.5,150.5C 88.8333,150.5 86.1667,150.5 83.5,150.5C 83.5,149.5 83.5,148.5 83.5,147.5 Z"/></g>
<g><path style="opacity:1" fill="#9bb9b2" d="M 122.5,133.5 C 122.5,136.5 122.5,139.5 122.5,142.5C 116.833,142.5 111.167,142.5 105.5,142.5C 105.5,143.5 105.5,144.5 105.5,145.5C 106.568,146.434 107.901,146.768 109.5,146.5C 109.768,148.099 109.434,149.432 108.5,150.5C 108.5,149.5 108.5,148.5 108.5,147.5C 107.167,147.5 105.833,147.5 104.5,147.5C 104.5,145.833 104.5,144.167 104.5,142.5C 104.232,140.901 104.566,139.568 105.5,138.5C 105.5,139.5 105.5,140.5 105.5,141.5C 110.833,141.5 116.167,141.5 121.5,141.5C 121.194,138.615 121.527,135.948 122.5,133.5 Z"/></g>
<g><path style="opacity:1" fill="#abc4bd" d="M 117.5,147.5 C 116.5,147.5 115.5,147.5 114.5,147.5C 114.5,149.833 114.5,152.167 114.5,154.5C 115.5,154.5 116.5,154.5 117.5,154.5C 116.432,155.434 115.099,155.768 113.5,155.5C 113.5,152.5 113.5,149.5 113.5,146.5C 115.099,146.232 116.432,146.566 117.5,147.5 Z"/></g>
<g><path style="opacity:1" fill="#f9fbfa" d="M 117.5,147.5 C 117.5,149.833 117.5,152.167 117.5,154.5C 116.5,154.5 115.5,154.5 114.5,154.5C 114.5,152.167 114.5,149.833 114.5,147.5C 115.5,147.5 116.5,147.5 117.5,147.5 Z"/></g>
<g><path style="opacity:1" fill="#1d5c4a" d="M 152.5,150.5 C 149.833,150.5 147.167,150.5 144.5,150.5C 144.5,149.5 144.5,148.5 144.5,147.5C 146.948,146.527 149.615,146.194 152.5,146.5C 152.5,147.833 152.5,149.167 152.5,150.5 Z"/></g>
<g><path style="opacity:1" fill="#477c6e" d="M 105.5,145.5 C 107.167,145.5 108.833,145.5 110.5,145.5C 110.5,147.5 110.5,149.5 110.5,151.5C 105.833,151.5 101.167,151.5 96.5,151.5C 100.298,150.517 104.298,150.183 108.5,150.5C 109.434,149.432 109.768,148.099 109.5,146.5C 107.901,146.768 106.568,146.434 105.5,145.5 Z"/></g>
<g><path style="opacity:1" fill="#7ea49b" d="M 144.5,147.5 C 144.5,148.5 144.5,149.5 144.5,150.5C 147.167,150.5 149.833,150.5 152.5,150.5C 149.713,151.477 146.713,151.81 143.5,151.5C 143.232,149.901 143.566,148.568 144.5,147.5 Z"/></g>
<g><path style="opacity:1" fill="#6d988d" d="M 169.5,146.5 C 168.791,147.404 167.791,147.737 166.5,147.5C 166.5,148.5 166.5,149.5 166.5,150.5C 167.791,150.263 168.791,150.596 169.5,151.5C 168.167,151.5 166.833,151.5 165.5,151.5C 165.5,149.833 165.5,148.167 165.5,146.5C 166.833,146.5 168.167,146.5 169.5,146.5 Z"/></g>
<g><path style="opacity:1" fill="#fcfdfd" d="M 57.5,151.5 C 60.1667,151.5 62.8333,151.5 65.5,151.5C 65.5,152.5 65.5,153.5 65.5,154.5C 62.8333,154.5 60.1667,154.5 57.5,154.5C 57.5,153.5 57.5,152.5 57.5,151.5 Z"/></g>
<g><path style="opacity:1" fill="#e1eae8" d="M 70.5,151.5 C 73.1667,151.5 75.8333,151.5 78.5,151.5C 78.5,152.5 78.5,153.5 78.5,154.5C 76.0521,155.473 73.3854,155.806 70.5,155.5C 70.5,154.167 70.5,152.833 70.5,151.5 Z"/></g>
<g><path style="opacity:1" fill="#739d93" d="M 122.5,151.5 C 125.287,150.523 128.287,150.19 131.5,150.5C 131.5,153.5 131.5,156.5 131.5,159.5C 130.527,157.052 130.194,154.385 130.5,151.5C 127.833,151.5 125.167,151.5 122.5,151.5 Z"/></g>
<g><path style="opacity:1" fill="#629185" d="M 139.5,146.5 C 138.432,147.434 137.099,147.768 135.5,147.5C 135.5,148.5 135.5,149.5 135.5,150.5C 136.833,150.5 138.167,150.5 139.5,150.5C 139.5,153.5 139.5,156.5 139.5,159.5C 139.167,159.5 138.833,159.5 138.5,159.5C 138.5,156.833 138.5,154.167 138.5,151.5C 137.167,151.5 135.833,151.5 134.5,151.5C 134.5,149.833 134.5,148.167 134.5,146.5C 136.167,146.5 137.833,146.5 139.5,146.5 Z"/></g>
<g><path style="opacity:1" fill="#89aca3" d="M 83.5,154.5 C 86.5,154.5 89.5,154.5 92.5,154.5C 92.5,157.5 92.5,160.5 92.5,163.5C 91.5269,161.052 91.1936,158.385 91.5,155.5C 88.6146,155.806 85.9479,155.473 83.5,154.5 Z"/></g>
<g><path style="opacity:1" fill="#7fa59b" d="M 147.5,154.5 C 152.167,154.5 156.833,154.5 161.5,154.5C 161.5,159.167 161.5,163.833 161.5,168.5C 156.833,168.5 152.167,168.5 147.5,168.5C 147.5,163.833 147.5,159.167 147.5,154.5 Z"/></g>
<g><path style="opacity:1" fill="#77a095" d="M 177.5,151.5 C 178.404,152.209 178.737,153.209 178.5,154.5C 180.099,154.232 181.432,154.566 182.5,155.5C 181.167,155.5 179.833,155.5 178.5,155.5C 178.5,159.5 178.5,163.5 178.5,167.5C 179.833,167.5 181.167,167.5 182.5,167.5C 181.081,168.451 179.415,168.784 177.5,168.5C 177.5,164.167 177.5,159.833 177.5,155.5C 176.5,155.5 175.5,155.5 174.5,155.5C 174.768,157.099 174.434,158.432 173.5,159.5C 173.5,158.167 173.5,156.833 173.5,155.5C 172.167,155.5 170.833,155.5 169.5,155.5C 169.5,154.167 169.5,152.833 169.5,151.5C 170.404,152.209 170.737,153.209 170.5,154.5C 171.5,154.5 172.5,154.5 173.5,154.5C 173.5,153.167 173.5,151.833 173.5,150.5C 175.099,150.232 176.432,150.566 177.5,151.5 Z"/></g>
<g><path style="opacity:1" fill="#fafbfb" d="M 177.5,151.5 C 177.5,152.5 177.5,153.5 177.5,154.5C 176.5,154.5 175.5,154.5 174.5,154.5C 174.5,153.5 174.5,152.5 174.5,151.5C 175.5,151.5 176.5,151.5 177.5,151.5 Z"/></g>
<g><path style="opacity:1" fill="#929387" d="M 18.5,59.5 C 18.5,122.833 18.5,186.167 18.5,249.5C 17.8333,249.5 17.1667,249.5 16.5,249.5C 16.5,197.5 16.5,145.5 16.5,93.5C 17.4767,90.7131 17.81,87.7131 17.5,84.5C 17.1739,75.9832 17.5073,67.6499 18.5,59.5 Z"/></g>
<g><path style="opacity:1" fill="#58897c" d="M 57.5,151.5 C 60.2869,150.523 63.2869,150.19 66.5,150.5C 66.5,152.5 66.5,154.5 66.5,156.5C 62.9878,157.055 59.9878,156.388 57.5,154.5C 60.1667,154.5 62.8333,154.5 65.5,154.5C 65.5,153.5 65.5,152.5 65.5,151.5C 62.8333,151.5 60.1667,151.5 57.5,151.5 Z"/></g>
<g><path style="opacity:1" fill="#115745" d="M 148.5,155.5 C 152.5,155.5 156.5,155.5 160.5,155.5C 160.5,159.5 160.5,163.5 160.5,167.5C 156.5,167.5 152.5,167.5 148.5,167.5C 148.5,163.5 148.5,159.5 148.5,155.5 Z"/></g>
<g><path style="opacity:1" fill="#f0f4f3" d="M 182.5,155.5 C 182.5,159.5 182.5,163.5 182.5,167.5C 181.167,167.5 179.833,167.5 178.5,167.5C 178.5,163.5 178.5,159.5 178.5,155.5C 179.833,155.5 181.167,155.5 182.5,155.5 Z"/></g>
<g><path style="opacity:1" fill="#aac3be" d="M 122.5,163.5 C 121.596,162.791 121.263,161.791 121.5,160.5C 117.167,160.5 112.833,160.5 108.5,160.5C 108.5,158.833 108.5,157.167 108.5,155.5C 107.5,155.5 106.5,155.5 105.5,155.5C 105.818,160.032 105.485,164.366 104.5,168.5C 104.5,163.833 104.5,159.167 104.5,154.5C 106.167,154.5 107.833,154.5 109.5,154.5C 109.5,156.167 109.5,157.833 109.5,159.5C 113.833,159.5 118.167,159.5 122.5,159.5C 122.5,160.833 122.5,162.167 122.5,163.5 Z"/></g>
<g><path style="opacity:1" fill="#437b6d" d="M 173.5,159.5 C 171.393,160.468 169.059,160.802 166.5,160.5C 166.5,162.833 166.5,165.167 166.5,167.5C 167.791,167.263 168.791,167.596 169.5,168.5C 168.167,168.5 166.833,168.5 165.5,168.5C 165.5,165.5 165.5,162.5 165.5,159.5C 168.167,159.5 170.833,159.5 173.5,159.5 Z"/></g>
<g><path style="opacity:1" fill="#e1eae7" d="M 63.5,159.5 C 71.5,159.5 79.5,159.5 87.5,159.5C 87.6664,167.507 87.4997,175.507 87,183.5C 83.6817,188.905 78.8483,190.905 72.5,189.5C 65.5054,191.228 60.672,188.894 58,182.5C 57.1304,176.083 57.4638,169.749 59,163.5C 60.3968,161.93 61.8968,160.596 63.5,159.5 Z"/></g>
<g><path style="opacity:1" fill="#1f5f4d" d="M 139.5,159.5 C 140.833,159.5 142.167,159.5 143.5,159.5C 143.5,160.833 143.5,162.167 143.5,163.5C 142.167,163.5 140.833,163.5 139.5,163.5C 139.5,162.167 139.5,160.833 139.5,159.5 Z"/></g>
<g><path style="opacity:1" fill="#dae5e3" d="M 152.5,159.5 C 153.833,159.5 155.167,159.5 156.5,159.5C 156.5,160.833 156.5,162.167 156.5,163.5C 155.167,163.5 153.833,163.5 152.5,163.5C 152.5,162.167 152.5,160.833 152.5,159.5 Z"/></g>
<g><path style="opacity:1" fill="#d0e7ce" d="M -0.5,162.5 C 0.117425,162.611 0.617425,162.944 1,163.5C 1.16667,165.5 1.33333,167.5 1.5,169.5C 1.71347,172.527 1.0468,175.193 -0.5,177.5C -0.5,172.5 -0.5,167.5 -0.5,162.5 Z"/></g>
<g><path style="opacity:1" fill="#205e4d" d="M 63.5,164.5 C 69.8333,164.5 76.1667,164.5 82.5,164.5C 82.6662,170.509 82.4995,176.509 82,182.5C 79.173,184.961 75.8396,185.961 72,185.5C 68.3959,186.013 65.3959,185.013 63,182.5C 62.254,176.449 62.4207,170.449 63.5,164.5 Z"/></g>
<g><path style="opacity:1" fill="#4f8275" d="M 117.5,164.5 C 115.167,164.5 112.833,164.5 110.5,164.5C 110.5,167.5 110.5,170.5 110.5,173.5C 108.833,173.5 107.167,173.5 105.5,173.5C 105.737,174.791 105.404,175.791 104.5,176.5C 104.5,175.167 104.5,173.833 104.5,172.5C 105.833,172.5 107.167,172.5 108.5,172.5C 108.5,169.5 108.5,166.5 108.5,163.5C 111.713,163.19 114.713,163.523 117.5,164.5 Z"/></g>
<g><path style="opacity:1" fill="#3c7566" d="M 67.5,168.5 C 71.6344,167.515 75.9677,167.182 80.5,167.5C 81.0803,171.649 80.4136,175.316 78.5,178.5C 78.5,175.167 78.5,171.833 78.5,168.5C 74.8333,168.5 71.1667,168.5 67.5,168.5 Z"/></g>
<g><path style="opacity:1" fill="#ccdaca" d="M 15.5,93.5 C 15.8333,93.5 16.1667,93.5 16.5,93.5C 16.5,145.5 16.5,197.5 16.5,249.5C 15.8092,211.657 15.1425,173.657 14.5,135.5C 15.4293,121.519 15.7626,107.519 15.5,93.5 Z"/></g>
<g><path style="opacity:1" fill="#fcfdfc" d="M 67.5,168.5 C 71.1667,168.5 74.8333,168.5 78.5,168.5C 78.5,171.833 78.5,175.167 78.5,178.5C 78.3893,179.117 78.056,179.617 77.5,180C 66.7667,182.797 63.4334,178.964 67.5,168.5 Z"/></g>
<g><path style="opacity:1" fill="#88aba2" d="M 139.5,172.5 C 139.5,175.5 139.5,178.5 139.5,181.5C 133.642,181.822 127.975,181.489 122.5,180.5C 121.596,179.791 121.263,178.791 121.5,177.5C 120.5,177.5 119.5,177.5 118.5,177.5C 118.737,178.791 118.404,179.791 117.5,180.5C 117.5,178.833 117.5,177.167 117.5,175.5C 118.833,175.5 120.167,175.5 121.5,175.5C 121.198,172.941 121.532,170.607 122.5,168.5C 122.5,171.167 122.5,173.833 122.5,176.5C 126.5,176.5 130.5,176.5 134.5,176.5C 133.756,173.05 135.09,171.384 138.5,171.5C 138.5,170.5 138.5,169.5 138.5,168.5C 137.167,168.5 135.833,168.5 134.5,168.5C 134.5,167.167 134.5,165.833 134.5,164.5C 133.5,164.5 132.5,164.5 131.5,164.5C 131.806,167.385 131.473,170.052 130.5,172.5C 130.5,169.5 130.5,166.5 130.5,163.5C 132.167,163.5 133.833,163.5 135.5,163.5C 135.5,164.833 135.5,166.167 135.5,167.5C 136.833,167.5 138.167,167.5 139.5,167.5C 139.5,169.167 139.5,170.833 139.5,172.5 Z"/></g>
<g><path style="opacity:1" fill="#fcfdfd" d="M 122.5,180.5 C 122.5,179.5 122.5,178.5 122.5,177.5C 126.833,177.5 131.167,177.5 135.5,177.5C 135.5,176.167 135.5,174.833 135.5,173.5C 136.5,173.5 137.5,173.5 138.5,173.5C 138.5,175.833 138.5,178.167 138.5,180.5C 133.167,180.5 127.833,180.5 122.5,180.5 Z"/></g>
<g><path style="opacity:1" fill="#0f5543" d="M 122.5,168.5 C 123.833,168.5 125.167,168.5 126.5,168.5C 126.5,169.833 126.5,171.167 126.5,172.5C 127.833,172.5 129.167,172.5 130.5,172.5C 131.473,170.052 131.806,167.385 131.5,164.5C 132.5,164.5 133.5,164.5 134.5,164.5C 134.5,165.833 134.5,167.167 134.5,168.5C 135.833,168.5 137.167,168.5 138.5,168.5C 138.5,169.5 138.5,170.5 138.5,171.5C 135.09,171.384 133.756,173.05 134.5,176.5C 130.5,176.5 126.5,176.5 122.5,176.5C 122.5,173.833 122.5,171.167 122.5,168.5 Z"/></g>
<g><path style="opacity:1" fill="#fcfdfd" d="M 92.5,177.5 C 93.5,177.5 94.5,177.5 95.5,177.5C 95.5,178.5 95.5,179.5 95.5,180.5C 94.5,180.5 93.5,180.5 92.5,180.5C 92.5,179.5 92.5,178.5 92.5,177.5 Z"/></g>
<g><path style="opacity:1" fill="#729c91" d="M 92.5,177.5 C 93.5676,176.566 94.901,176.232 96.5,176.5C 99.1667,176.5 101.833,176.5 104.5,176.5C 102.052,177.473 99.3854,177.806 96.5,177.5C 96.5,178.5 96.5,179.5 96.5,180.5C 98.1667,180.5 99.8333,180.5 101.5,180.5C 101.81,183.713 101.477,186.713 100.5,189.5C 100.5,186.833 100.5,184.167 100.5,181.5C 99.1667,181.5 97.8333,181.5 96.5,181.5C 96.5,182.833 96.5,184.167 96.5,185.5C 95.1667,185.5 93.8333,185.5 92.5,185.5C 93.209,184.596 94.209,184.263 95.5,184.5C 95.5,183.5 95.5,182.5 95.5,181.5C 94.209,181.737 93.209,181.404 92.5,180.5C 93.5,180.5 94.5,180.5 95.5,180.5C 95.5,179.5 95.5,178.5 95.5,177.5C 94.5,177.5 93.5,177.5 92.5,177.5 Z"/></g>
<g><path style="opacity:1" fill="#779f95" d="M 113.5,180.5 C 114.833,180.5 116.167,180.5 117.5,180.5C 116.791,181.404 115.791,181.737 114.5,181.5C 114.5,182.5 114.5,183.5 114.5,184.5C 115.791,184.263 116.791,184.596 117.5,185.5C 116.167,185.5 114.833,185.5 113.5,185.5C 113.5,184.167 113.5,182.833 113.5,181.5C 110.833,181.5 108.167,181.5 105.5,181.5C 105.5,182.5 105.5,183.5 105.5,184.5C 106.791,184.263 107.791,184.596 108.5,185.5C 107.167,185.5 105.833,185.5 104.5,185.5C 104.5,183.833 104.5,182.167 104.5,180.5C 107.5,180.5 110.5,180.5 113.5,180.5 Z"/></g>
<g><path style="opacity:1" fill="#7ca49a" d="M 152.5,181.5 C 149.833,181.5 147.167,181.5 144.5,181.5C 144.737,182.791 144.404,183.791 143.5,184.5C 143.5,183.167 143.5,181.833 143.5,180.5C 146.713,180.19 149.713,180.523 152.5,181.5 Z"/></g>
<g><path style="opacity:1" fill="#749e94" d="M 182.5,180.5 C 179.713,181.477 176.713,181.81 173.5,181.5C 173.5,180.167 173.5,178.833 173.5,177.5C 170.833,177.5 168.167,177.5 165.5,177.5C 165.5,178.5 165.5,179.5 165.5,180.5C 167.167,180.5 168.833,180.5 170.5,180.5C 170.81,183.713 170.477,186.713 169.5,189.5C 169.5,186.833 169.5,184.167 169.5,181.5C 168.167,181.5 166.833,181.5 165.5,181.5C 165.5,184.167 165.5,186.833 165.5,189.5C 164.527,187.052 164.194,184.385 164.5,181.5C 163.209,181.737 162.209,181.404 161.5,180.5C 162.5,180.5 163.5,180.5 164.5,180.5C 164.5,179.167 164.5,177.833 164.5,176.5C 167.833,176.5 171.167,176.5 174.5,176.5C 174.5,177.833 174.5,179.167 174.5,180.5C 177.167,180.5 179.833,180.5 182.5,180.5 Z"/></g>
<g><path style="opacity:1" fill="#eef3f2" d="M 100.5,189.5 C 97.8333,189.5 95.1667,189.5 92.5,189.5C 92.5,188.167 92.5,186.833 92.5,185.5C 93.8333,185.5 95.1667,185.5 96.5,185.5C 96.5,184.167 96.5,182.833 96.5,181.5C 97.8333,181.5 99.1667,181.5 100.5,181.5C 100.5,184.167 100.5,186.833 100.5,189.5 Z"/></g>
<g><path style="opacity:1" fill="#f2f6f5" d="M 117.5,185.5 C 117.5,186.833 117.5,188.167 117.5,189.5C 114.833,189.5 112.167,189.5 109.5,189.5C 109.768,187.901 109.434,186.568 108.5,185.5C 107.791,184.596 106.791,184.263 105.5,184.5C 105.5,183.5 105.5,182.5 105.5,181.5C 108.167,181.5 110.833,181.5 113.5,181.5C 113.5,182.833 113.5,184.167 113.5,185.5C 114.833,185.5 116.167,185.5 117.5,185.5 Z"/></g>
<g><path style="opacity:1" fill="#f2f6f5" d="M 152.5,181.5 C 152.5,182.833 152.5,184.167 152.5,185.5C 153.833,185.5 155.167,185.5 156.5,185.5C 156.5,186.833 156.5,188.167 156.5,189.5C 150.833,189.5 145.167,189.5 139.5,189.5C 139.5,188.167 139.5,186.833 139.5,185.5C 141.099,185.768 142.432,185.434 143.5,184.5C 144.404,183.791 144.737,182.791 144.5,181.5C 147.167,181.5 149.833,181.5 152.5,181.5 Z"/></g>
<g><path style="opacity:1" fill="#e7eeec" d="M 169.5,189.5 C 168.167,189.5 166.833,189.5 165.5,189.5C 165.5,186.833 165.5,184.167 165.5,181.5C 166.833,181.5 168.167,181.5 169.5,181.5C 169.5,184.167 169.5,186.833 169.5,189.5 Z"/></g>
<g><path style="opacity:1" fill="#e6edeb" d="M 122.5,185.5 C 123.833,185.5 125.167,185.5 126.5,185.5C 126.5,186.833 126.5,188.167 126.5,189.5C 125.167,189.5 123.833,189.5 122.5,189.5C 122.5,188.167 122.5,186.833 122.5,185.5 Z"/></g>
<g><path style="opacity:1" fill="#ecf1f0" d="M 178.5,185.5 C 179.833,185.5 181.167,185.5 182.5,185.5C 182.5,186.833 182.5,188.167 182.5,189.5C 181.167,189.5 179.833,189.5 178.5,189.5C 178.5,188.167 178.5,186.833 178.5,185.5 Z"/></g>
<g><path style="opacity:1" fill="#d1ddcf" d="M 222.5,41.5 C 223.499,125.665 223.833,209.998 223.5,294.5C 225.5,294.5 227.5,294.5 229.5,294.5C 229.5,295.167 229.5,295.833 229.5,296.5C 227.167,296.5 224.833,296.5 222.5,296.5C 222.5,211.5 222.5,126.5 222.5,41.5 Z"/></g>
<g><path style="opacity:1" fill="#608f83" d="M 96.5,209.5 C 98.8211,209.229 100.821,209.896 102.5,211.5C 104.861,210.224 107.028,210.558 109,212.5C 112.265,211.433 115.931,210.433 120,209.5C 120.945,209.905 121.612,210.572 122,211.5C 125.122,211.377 128.289,211.377 131.5,211.5C 135.668,208.674 137.335,210.008 136.5,215.5C 130.167,215.5 123.833,215.5 117.5,215.5C 117.167,211.5 116.833,211.5 116.5,215.5C 114.322,214.796 112.322,214.463 110.5,214.5C 108.568,215.366 106.568,216.033 104.5,216.5C 103.353,216.182 102.519,215.516 102,214.5C 100.556,216.155 98.7224,216.822 96.5,216.5C 96.5,214.167 96.5,211.833 96.5,209.5 Z"/></g>
<g><path style="opacity:1" fill="#bfd2cd" d="M 82.5,214.5 C 81.1667,214.5 80.5,213.833 80.5,212.5C 81.4654,209.915 82.7988,209.415 84.5,211C 84.0217,212.303 83.355,213.469 82.5,214.5 Z"/></g>
<g><path style="opacity:1" fill="#649286" d="M 154.5,209.5 C 157.622,211.171 160.789,211.838 164,211.5C 164.492,212.549 164.326,213.549 163.5,214.5C 161.604,215.466 159.604,215.799 157.5,215.5C 157.167,211.5 156.833,211.5 156.5,215.5C 155.167,215.5 153.833,215.5 152.5,215.5C 152.579,214.07 152.246,212.736 151.5,211.5C 152.602,210.824 153.602,210.158 154.5,209.5 Z"/></g>
<g><path style="opacity:1" fill="#5a8b7e" d="M 139.5,210.5 C 142.209,211.483 144.876,211.65 147.5,211C 148.554,212.388 148.72,213.888 148,215.5C 147.193,211.551 146.693,211.551 146.5,215.5C 144.425,215.698 142.425,215.865 140.5,216C 138.365,214.444 138.032,212.611 139.5,210.5 Z"/></g>
<g><path style="opacity:1" fill="#7fa59b" d="M 80.5,212.5 C 80.5,213.833 81.1667,214.5 82.5,214.5C 84.099,214.232 85.4324,214.566 86.5,215.5C 82.5,216.833 78.5,216.833 74.5,215.5C 76.6391,214.842 78.6391,213.842 80.5,212.5 Z"/></g>
<g><path style="opacity:1" fill="#f5f8f7" d="M 74.5,215.5 C 78.5,216.833 82.5,216.833 86.5,215.5C 85.8905,219.319 86.5571,223.153 88.5,227C 88.0222,228.642 87.0222,229.809 85.5,230.5C 82.1667,230.5 78.8333,230.5 75.5,230.5C 74.5416,230.047 73.7083,229.381 73,228.5C 71.7235,224.903 71.3901,221.236 72,217.5C 72.7083,216.619 73.5416,215.953 74.5,215.5 Z"/></g>
<g><path style="opacity:1" fill="#c8d8d4" d="M 141.5,221.5 C 142.643,221.908 143.643,222.575 144.5,223.5C 143.167,225.833 143.167,228.167 144.5,230.5C 143.386,231.776 142.386,231.776 141.5,230.5C 141.108,227.324 141.108,224.324 141.5,221.5 Z"/></g>
<g><path style="opacity:1" fill="#3f7768" d="M 122.5,223.5 C 120.833,223.5 119.167,223.5 117.5,223.5C 116.833,224.167 116.167,224.833 115.5,225.5C 115.389,224.883 115.056,224.383 114.5,224C 112.19,223.503 109.857,223.337 107.5,223.5C 107.5,227.167 107.5,230.833 107.5,234.5C 106.26,233.341 104.926,232.341 103.5,231.5C 104.497,231.53 105.164,231.03 105.5,230C 104.852,228.56 104.519,227.06 104.5,225.5C 105.404,224.791 105.737,223.791 105.5,222.5C 110.201,222.648 114.868,222.315 119.5,221.5C 121.03,221.64 122.03,222.307 122.5,223.5 Z"/></g>
<g><path style="opacity:1" fill="#83a89e" d="M 117.5,223.5 C 117.5,227.167 117.5,230.833 117.5,234.5C 116.833,232.833 116.167,231.167 115.5,229.5C 115.5,228.167 115.5,226.833 115.5,225.5C 116.167,224.833 116.833,224.167 117.5,223.5 Z"/></g>
<g><path style="opacity:1" fill="#b4cac4" d="M 153.5,224.5 C 153.5,226.5 153.5,228.5 153.5,230.5C 148.945,233.856 146.278,232.689 145.5,227C 146.863,222.158 149.53,221.325 153.5,224.5 Z"/></g>
<g><path style="opacity:1" fill="#346f5f" d="M 138.5,221.5 C 139.5,221.5 140.5,221.5 141.5,221.5C 141.108,224.324 141.108,227.324 141.5,230.5C 140.883,230.389 140.383,230.056 140,229.5C 139.583,230.756 138.75,231.423 137.5,231.5C 139.472,226.607 137.806,224.274 132.5,224.5C 132.5,223.5 132.5,222.5 132.5,221.5C 134.722,221.178 136.556,221.845 138,223.5C 138.464,222.906 138.631,222.239 138.5,221.5 Z"/></g>
<g><path style="opacity:1" fill="#b8cdc8" d="M 168.5,224.5 C 167.833,228.5 167.167,228.5 166.5,224.5C 165.167,224.5 163.833,224.5 162.5,224.5C 162.5,226.167 162.5,227.833 162.5,229.5C 169.167,230.167 169.167,230.833 162.5,231.5C 162.167,230.5 161.5,229.833 160.5,229.5C 160.366,227.708 160.699,226.042 161.5,224.5C 163.705,221.947 166.038,221.947 168.5,224.5 Z"/></g>
<g><path style="opacity:1" fill="#aec6c0" d="M 138.5,221.5 C 138.631,222.239 138.464,222.906 138,223.5C 136.556,221.845 134.722,221.178 132.5,221.5C 132.5,222.5 132.5,223.5 132.5,224.5C 137.806,224.274 139.472,226.607 137.5,231.5C 135.183,232.942 133.016,232.608 131,230.5C 130.312,229.668 130.479,229.002 131.5,228.5C 133.198,229.681 134.865,229.681 136.5,228.5C 133.971,227.263 131.971,225.429 130.5,223C 130.812,220.719 132.145,219.552 134.5,219.5C 136.355,219.34 137.688,220.007 138.5,221.5 Z"/></g>
<g><path style="opacity:1" fill="#4e8376" d="M 161.5,224.5 C 160.699,226.042 160.366,227.708 160.5,229.5C 159.978,227.781 158.978,226.448 157.5,225.5C 157.918,224.778 158.584,224.278 159.5,224C 158.207,223.51 156.873,223.343 155.5,223.5C 155.5,226.167 155.5,228.833 155.5,231.5C 154.833,231.167 154.167,230.833 153.5,230.5C 153.5,228.5 153.5,226.5 153.5,224.5C 156.167,221.833 158.833,221.833 161.5,224.5 Z"/></g>
<g><path style="opacity:1" fill="#c5d6d2" d="M 115.5,225.5 C 115.5,226.833 115.5,228.167 115.5,229.5C 115.5,230.167 115.167,230.5 114.5,230.5C 113.508,230.672 112.842,230.338 112.5,229.5C 114.273,226.324 113.273,224.657 109.5,224.5C 109.5,226.167 109.5,227.833 109.5,229.5C 108.699,231.042 108.366,232.708 108.5,234.5C 108.167,234.5 107.833,234.5 107.5,234.5C 107.5,230.833 107.5,227.167 107.5,223.5C 109.857,223.337 112.19,223.503 114.5,224C 115.056,224.383 115.389,224.883 115.5,225.5 Z"/></g>
<g><path style="opacity:1" fill="#1d5e4c" d="M 112.5,229.5 C 111.5,229.5 110.5,229.5 109.5,229.5C 109.5,227.833 109.5,226.167 109.5,224.5C 113.273,224.657 114.273,226.324 112.5,229.5 Z"/></g>
<g><path style="opacity:1" fill="#c7d8d4" d="M 117.5,223.5 C 119.167,223.5 120.833,223.5 122.5,223.5C 123.5,223.5 124.5,223.5 125.5,223.5C 125.662,225.527 125.495,227.527 125,229.5C 124.617,230.056 124.117,230.389 123.5,230.5C 122.833,230.5 122.5,230.167 122.5,229.5C 124.361,225.672 123.027,224.005 118.5,224.5C 118.216,226.415 118.549,228.081 119.5,229.5C 118.699,231.042 118.366,232.708 118.5,234.5C 118.167,234.5 117.833,234.5 117.5,234.5C 117.5,230.833 117.5,227.167 117.5,223.5 Z"/></g>
<g><path style="opacity:1" fill="#336d5d" d="M 122.5,229.5 C 121.5,229.5 120.5,229.5 119.5,229.5C 118.549,228.081 118.216,226.415 118.5,224.5C 123.027,224.005 124.361,225.672 122.5,229.5 Z"/></g>
<g><path style="opacity:1" fill="#2e6a5a" d="M 148.5,224.5 C 152.161,224.35 153.161,225.85 151.5,229C 150.207,229.49 148.873,229.657 147.5,229.5C 147.366,227.708 147.699,226.042 148.5,224.5 Z"/></g>
<g><path style="opacity:1" fill="#bcd0cb" d="M 157.5,225.5 C 157.975,228.082 157.308,230.082 155.5,231.5C 155.5,228.833 155.5,226.167 155.5,223.5C 156.873,223.343 158.207,223.51 159.5,224C 158.584,224.278 157.918,224.778 157.5,225.5 Z"/></g>
<g><path style="opacity:1" fill="#b5cbc6" d="M 104.5,225.5 C 104.519,227.06 104.852,228.56 105.5,230C 105.164,231.03 104.497,231.53 103.5,231.5C 103.5,230.5 103.5,229.5 103.5,228.5C 100.453,227.855 98.2865,228.855 97,231.5C 96.7167,227.706 97.3834,224.039 99,220.5C 100.011,219.663 101.178,219.33 102.5,219.5C 102.259,221.898 102.926,223.898 104.5,225.5 Z"/></g>
<g><path style="opacity:1" fill="#769f95" d="M 75.5,230.5 C 78.8333,230.5 82.1667,230.5 85.5,230.5C 85.5299,231.497 85.0299,232.164 84,232.5C 81.6667,231.167 79.3333,231.167 77,232.5C 75.9701,232.164 75.4701,231.497 75.5,230.5 Z"/></g>
<g><path style="opacity:1" fill="#84a99f" d="M 109.5,229.5 C 110.5,229.5 111.5,229.5 112.5,229.5C 112.842,230.338 113.508,230.672 114.5,230.5C 112.547,231.835 110.547,233.168 108.5,234.5C 108.366,232.708 108.699,231.042 109.5,229.5 Z"/></g>
<g><path style="opacity:1" fill="#7ca399" d="M 119.5,229.5 C 120.5,229.5 121.5,229.5 122.5,229.5C 122.5,230.167 122.833,230.5 123.5,230.5C 122.086,232.054 120.419,233.388 118.5,234.5C 118.366,232.708 118.699,231.042 119.5,229.5 Z"/></g>
<g><path style="opacity:1" fill="#3e7567" d="M 168.5,224.5 C 171.248,231.253 169.248,233.586 162.5,231.5C 169.167,230.833 169.167,230.167 162.5,229.5C 162.5,227.833 162.5,226.167 162.5,224.5C 163.833,224.5 165.167,224.5 166.5,224.5C 167.167,228.5 167.833,228.5 168.5,224.5 Z"/></g>
<g><path style="opacity:1" fill="#363331" d="M 219.5,37.5 C 220.434,38.5676 220.768,39.901 220.5,41.5C 221.489,126.478 221.823,211.478 221.5,296.5C 221.167,296.5 220.833,296.5 220.5,296.5C 220.809,210.156 220.476,123.823 219.5,37.5 Z"/></g>
<g><path style="opacity:1" fill="#6a978c" d="M 112.5,249.5 C 117.707,248.94 118.707,250.607 115.5,254.5C 114.749,253.624 114.249,252.624 114,251.5C 113.667,252.833 113.333,254.167 113,255.5C 112.505,253.527 112.338,251.527 112.5,249.5 Z"/></g>
<g><path style="opacity:1" fill="#5e8d80" d="M 121.5,249.5 C 123.746,249.936 125.913,250.603 128,251.5C 128.414,251.043 128.914,250.709 129.5,250.5C 130.833,252.167 130.833,253.833 129.5,255.5C 126.667,255.418 123.667,255.252 120.5,255C 119.156,252.856 119.49,251.023 121.5,249.5 Z"/></g>
<g><path style="opacity:1" fill="#039dac" d="M 71.5,250.5 C 71.5,251.167 71.5,251.833 71.5,252.5C 70.5104,258.31 70.1771,264.31 70.5,270.5C 69.7913,268.096 69.458,264.93 69.5,261C 69.5123,257.098 70.179,253.598 71.5,250.5 Z"/></g>
<g><path style="opacity:1" fill="#d3d3ce" d="M 16.5,249.5 C 17.1667,249.5 17.8333,249.5 18.5,249.5C 18.5,256.833 18.5,264.167 18.5,271.5C 17.8333,271.5 17.1667,271.5 16.5,271.5C 17.8333,264.167 17.8333,256.833 16.5,249.5 Z"/></g>
<g><path style="opacity:1" fill="#1cd676" d="M 71.5,250.5 C 75.218,252.586 78.8846,254.586 82.5,256.5C 82.8333,257.167 83.1667,257.833 83.5,258.5C 82.8333,259.5 82.1667,260.5 81.5,261.5C 81.1667,261.5 80.8333,261.5 80.5,261.5C 77.8333,258.167 74.8333,255.167 71.5,252.5C 71.5,251.833 71.5,251.167 71.5,250.5 Z"/></g>
<g><path style="opacity:1" fill="#679489" d="M 97.5,249.5 C 99.451,249.227 100.951,249.893 102,251.5C 104.179,249.363 106.679,249.029 109.5,250.5C 108.846,252.115 108.346,253.782 108,255.5C 107.667,254.167 107.333,252.833 107,251.5C 106.228,252.849 105.061,253.682 103.5,254C 104.167,254.333 104.833,254.667 105.5,255C 102.94,254.786 100.274,254.786 97.5,255C 96.2475,253.172 96.2475,251.339 97.5,249.5 Z"/></g>
<g><path style="opacity:1" fill="#4a893a" d="M 82.5,256.5 C 84.8477,256.592 86.5144,257.592 87.5,259.5C 86.2921,258.766 84.9587,258.433 83.5,258.5C 83.1667,257.833 82.8333,257.167 82.5,256.5 Z"/></g>
<g><path style="opacity:1" fill="#24cdf5" d="M 71.5,252.5 C 74.8333,255.167 77.8333,258.167 80.5,261.5C 79.5,262.833 78.5,264.167 77.5,265.5C 75.5,267.167 73.5,268.833 71.5,270.5C 71.1667,270.5 70.8333,270.5 70.5,270.5C 70.1771,264.31 70.5104,258.31 71.5,252.5 Z"/></g>
<g><path style="opacity:1" fill="#ebbf09" d="M 83.5,258.5 C 84.9587,258.433 86.2921,258.766 87.5,259.5C 89.0847,260.002 89.5847,261.002 89,262.5C 87.2745,263.464 85.4412,264.131 83.5,264.5C 82.8333,263.5 82.1667,262.5 81.5,261.5C 82.1667,260.5 82.8333,259.5 83.5,258.5 Z"/></g>
<g><path style="opacity:1" fill="#a9c3bd" d="M 125.5,263.5 C 127.5,263.5 129.5,263.5 131.5,263.5C 131.5,265.833 131.5,268.167 131.5,270.5C 130.072,273.4 127.906,274.067 125,272.5C 125.148,271.175 124.982,270.008 124.5,269C 122.038,269.611 119.704,269.445 117.5,268.5C 111.163,268.774 104.83,268.941 98.5,269C 95.2172,263.733 96.5505,260.233 102.5,258.5C 103.737,258.556 104.737,259.056 105.5,260C 100.534,259.631 98.3675,261.798 99,266.5C 101.257,269.119 103.423,269.119 105.5,266.5C 104.5,265.833 103.5,265.167 102.5,264.5C 103.333,264.167 104.167,263.833 105,263.5C 108.027,263.775 111.194,263.942 114.5,264C 115,264.5 115.5,265 116,265.5C 116.839,264.376 118.006,263.709 119.5,263.5C 121.624,264.287 123.624,264.287 125.5,263.5 Z"/></g>
<g><path style="opacity:1" fill="#abc4be" d="M 132.5,259.5 C 133.163,261.042 133.83,262.709 134.5,264.5C 137.25,262.922 139.583,263.255 141.5,265.5C 137.119,266.292 136.786,267.459 140.5,269C 137.869,269.107 135.369,269.273 133,269.5C 132.502,266.183 132.335,262.85 132.5,259.5 Z"/></g>
<g><path style="opacity:1" fill="#216150" d="M 110.5,264.5 C 111.5,264.5 112.5,264.5 113.5,264.5C 113.778,266.346 113.111,267.68 111.5,268.5C 110.571,267.311 110.238,265.978 110.5,264.5 Z"/></g>
<g><path style="opacity:1" fill="#21604f" d="M 126.5,264.5 C 129.861,265.203 130.194,266.537 127.5,268.5C 126.571,267.311 126.238,265.978 126.5,264.5 Z"/></g>
<g><path style="opacity:1" fill="#99b7af" d="M 144.5,258.5 C 147.272,258.22 149.772,258.887 152,260.5C 153.011,259.663 154.178,259.33 155.5,259.5C 155.5,260.5 155.5,261.5 155.5,262.5C 160.238,262.535 164.571,263.202 168.5,264.5C 167.352,267.289 166.019,269.956 164.5,272.5C 163.772,269.788 162.939,267.121 162,264.5C 161.505,266.473 161.338,268.473 161.5,270.5C 158.5,270.5 155.5,270.5 152.5,270.5C 152.663,268.143 152.497,265.81 152,263.5C 150.556,265.155 148.722,265.822 146.5,265.5C 146.762,266.978 146.429,268.311 145.5,269.5C 144.511,265.893 144.177,262.226 144.5,258.5 Z"/></g>
<g><path style="opacity:1" fill="#236251" d="M 146.5,261.5 C 147.5,261.5 148.5,261.5 149.5,261.5C 149.5,262.5 149.5,263.5 149.5,264.5C 148.5,264.5 147.5,264.5 146.5,264.5C 146.5,263.5 146.5,262.5 146.5,261.5 Z"/></g>
<g><path style="opacity:1" fill="#ee3a49" d="M 80.5,261.5 C 80.8333,261.5 81.1667,261.5 81.5,261.5C 82.1667,262.5 82.8333,263.5 83.5,264.5C 82.1667,265.5 80.8333,266.5 79.5,267.5C 78.1667,267.5 77.5,266.833 77.5,265.5C 78.5,264.167 79.5,262.833 80.5,261.5 Z"/></g>
<g><path style="opacity:1" fill="#427a6b" d="M 117.5,268.5 C 117.167,265.5 118.5,264.167 121.5,264.5C 121.5,265.833 121.5,267.167 121.5,268.5C 120.167,268.5 118.833,268.5 117.5,268.5 Z"/></g>
<g><path style="opacity:1" fill="#bf3a52" d="M 77.5,265.5 C 77.5,266.833 78.1667,267.5 79.5,267.5C 76.9795,269.019 74.4795,270.686 72,272.5C 71.5357,271.906 71.369,271.239 71.5,270.5C 73.5,268.833 75.5,267.167 77.5,265.5 Z"/></g>
<g><path style="opacity:1" fill="#457b6d" d="M 132.5,259.5 C 132.335,262.85 132.502,266.183 133,269.5C 135.369,269.273 137.869,269.107 140.5,269C 136.786,267.459 137.119,266.292 141.5,265.5C 141.307,267.086 140.973,268.753 140.5,270.5C 137.583,271.066 134.583,271.066 131.5,270.5C 131.5,268.167 131.5,265.833 131.5,263.5C 129.5,263.5 127.5,263.5 125.5,263.5C 127.265,262.539 129.265,262.205 131.5,262.5C 131.263,261.209 131.596,260.209 132.5,259.5 Z"/></g>
<g><path style="opacity:1" fill="#8f9484" d="M 16.5,271.5 C 17.1667,271.5 17.8333,271.5 18.5,271.5C 18.5,279.5 18.5,287.5 18.5,295.5C 16.5332,287.903 15.8665,279.903 16.5,271.5 Z"/></g>
<g><path style="opacity:1" fill="#cee5cc" d="M -0.5,267.5 C 0.28997,268.609 0.78997,269.942 1,271.5C 1.49969,279.159 1.66635,286.826 1.5,294.5C 6.16667,294.5 10.8333,294.5 15.5,294.5C 15.1746,286.648 15.508,278.982 16.5,271.5C 15.8665,279.903 16.5332,287.903 18.5,295.5C 18.5,295.833 18.5,296.167 18.5,296.5C 12.1667,296.5 5.83333,296.5 -0.5,296.5C -0.5,286.833 -0.5,277.167 -0.5,267.5 Z"/></g>
</svg>
