<?xml version="1.0" encoding="UTF-8"?>
<!DOCTYPE svg PUBLIC "-//W3C//DTD SVG 1.1//EN" "http://www.w3.org/Graphics/SVG/1.1/DTD/svg11.dtd">
<svg xmlns="http://www.w3.org/2000/svg" version="1.1" width="792px" height="800px" style="shape-rendering:geometricPrecision; text-rendering:geometricPrecision; image-rendering:optimizeQuality; fill-rule:evenodd; clip-rule:evenodd" xmlns:xlink="http://www.w3.org/1999/xlink">
<g><path style="opacity:1" fill="#0f4f3b" d="M -0.5,-0.5 C 263.5,-0.5 527.5,-0.5 791.5,-0.5C 791.5,266.167 791.5,532.833 791.5,799.5C 527.5,799.5 263.5,799.5 -0.5,799.5C -0.5,532.833 -0.5,266.167 -0.5,-0.5 Z"/></g>
<g><path style="opacity:1" fill="#289c3b" d="M 434.5,222.5 C 436.013,224.516 436.847,226.849 437,229.5C 437.5,244.496 437.667,259.496 437.5,274.5C 437.877,283.91 436.21,292.91 432.5,301.5C 428.127,300.977 423.794,300.143 419.5,299C 418.874,298.25 418.374,297.416 418,296.5C 416.694,280.195 416.194,263.862 416.5,247.5C 416.023,242.258 416.856,237.258 419,232.5C 420.413,230.586 422.247,229.253 424.5,228.5C 426.256,223.953 429.589,221.953 434.5,222.5 Z"/></g>
<g><path style="opacity:1" fill="#035c29" d="M 434.5,222.5 C 435.496,222.414 436.329,222.748 437,223.5C 437.333,225.167 437.667,226.833 438,228.5C 438.828,244.006 438.661,259.339 437.5,274.5C 437.667,259.496 437.5,244.496 437,229.5C 436.847,226.849 436.013,224.516 434.5,222.5 Z"/></g>
<g><path style="opacity:1" fill="#095732" d="M 416.5,247.5 C 416.194,263.862 416.694,280.195 418,296.5C 418.374,297.416 418.874,298.25 419.5,299C 423.794,300.143 428.127,300.977 432.5,301.5C 427.396,302.903 422.396,302.236 417.5,299.5C 414.047,282.079 413.714,264.746 416.5,247.5 Z"/></g>
<g><path style="opacity:1" fill="#289c39" d="M 359.5,260.5 C 363.131,260.16 366.464,260.994 369.5,263C 377.601,269.098 385.101,275.931 392,283.5C 396.977,290.088 399.311,297.421 399,305.5C 396.947,309.292 393.781,310.458 389.5,309C 376.88,298.717 366.046,286.884 357,273.5C 356.333,270.167 356.333,266.833 357,263.5C 357.698,262.309 358.531,261.309 359.5,260.5 Z"/></g>
<g><path style="opacity:1" fill="#fafcfb" d="M 200.5,346.5 C 200.56,347.043 200.893,347.376 201.5,347.5C 202.5,327.511 202.833,307.511 202.5,287.5C 208.5,287.5 214.5,287.5 220.5,287.5C 220.17,307.34 220.503,327.007 221.5,346.5C 222.401,345.71 223.068,344.71 223.5,343.5C 237.268,324.822 250.934,305.989 264.5,287C 272.167,286.333 279.833,286.333 287.5,287C 271.785,308.276 256.452,329.776 241.5,351.5C 256.437,373.106 271.77,394.439 287.5,415.5C 280.352,416.492 273.019,416.825 265.5,416.5C 250.922,397.011 236.589,377.344 222.5,357.5C 222.44,356.957 222.107,356.624 221.5,356.5C 220.667,376.158 220.167,395.825 220,415.5C 213.924,416.476 207.758,416.81 201.5,416.5C 201.667,396.831 201.5,377.164 201,357.5C 186.491,377.196 171.991,396.863 157.5,416.5C 149.981,416.825 142.648,416.492 135.5,415.5C 151.23,394.439 166.563,373.106 181.5,351.5C 166.534,330.191 151.534,308.858 136.5,287.5C 143.811,286.335 151.144,286.169 158.5,287C 173.133,306.454 187.133,326.287 200.5,346.5 Z"/></g>
<g><path style="opacity:1" fill="#0c2f22" d="M 221.5,287.5 C 222.179,306.069 222.845,324.735 223.5,343.5C 223.068,344.71 222.401,345.71 221.5,346.5C 221.5,326.833 221.5,307.167 221.5,287.5 Z"/></g>
<g><path style="opacity:1" fill="#299b3b" d="M 476.5,296.5 C 472.676,300.824 468.676,304.991 464.5,309C 462.5,309.667 460.5,309.667 458.5,309C 454.072,303.645 453.405,297.812 456.5,291.5C 464.959,279.874 474.959,269.707 486.5,261C 489.692,258.219 492.858,258.052 496,260.5C 496.146,264.555 496.98,268.388 498.5,272C 498.204,273.888 497.704,275.722 497,277.5C 489.996,283.671 483.163,290.005 476.5,296.5 Z"/></g>
<g><path style="opacity:1" fill="#0c5832" d="M 456.5,291.5 C 453.405,297.812 454.072,303.645 458.5,309C 460.5,309.667 462.5,309.667 464.5,309C 468.676,304.991 472.676,300.824 476.5,296.5C 473.94,300.614 471.607,304.947 469.5,309.5C 466.047,311.065 462.381,312.065 458.5,312.5C 457.287,309.72 455.787,307.054 454,304.5C 453.173,300.459 453.34,296.459 454.5,292.5C 455.183,292.137 455.85,291.804 456.5,291.5 Z"/></g>
<g><path style="opacity:1" fill="#d8ebe3" d="M 221.5,287.5 C 221.5,307.167 221.5,326.833 221.5,346.5C 220.503,327.007 220.17,307.34 220.5,287.5C 214.5,287.5 208.5,287.5 202.5,287.5C 202.833,307.511 202.5,327.511 201.5,347.5C 200.893,347.376 200.56,347.043 200.5,346.5C 201.497,326.674 201.83,306.674 201.5,286.5C 208.354,286.176 215.021,286.509 221.5,287.5 Z"/></g>
<g><path style="opacity:1" fill="#f8fbfa" d="M 417.5,320.5 C 431.404,318.862 443.738,322.362 454.5,331C 464.898,345.132 463.565,357.965 450.5,369.5C 464.327,378.829 467.16,390.829 459,405.5C 452.337,414.085 443.504,418.919 432.5,420C 411.417,422.378 396.75,413.878 388.5,394.5C 393.07,391.747 398.07,389.747 403.5,388.5C 406.984,392.485 410.651,396.318 414.5,400C 422.986,403.532 431.32,403.198 439.5,399C 447.182,389.007 444.849,382.341 432.5,379C 426.509,378.501 420.509,378.334 414.5,378.5C 414.5,372.5 414.5,366.5 414.5,360.5C 420.176,360.666 425.843,360.499 431.5,360C 437.594,359.073 441.261,355.573 442.5,349.5C 441.404,343.903 438.07,340.403 432.5,339C 421.578,336.305 412.911,339.472 406.5,348.5C 401.214,346.96 395.88,345.626 390.5,344.5C 391.209,338.615 393.876,333.782 398.5,330C 404.378,325.727 410.712,322.561 417.5,320.5 Z"/></g>
<g><path style="opacity:1" fill="#fcfefe" d="M 541.5,416.5 C 541.5,403.833 541.5,391.167 541.5,378.5C 525.991,378.17 510.658,378.504 495.5,379.5C 495.5,391.833 495.5,404.167 495.5,416.5C 489.167,416.5 482.833,416.5 476.5,416.5C 476.5,385.833 476.5,355.167 476.5,324.5C 482.833,324.5 489.167,324.5 495.5,324.5C 495.5,336.5 495.5,348.5 495.5,360.5C 510.833,360.5 526.167,360.5 541.5,360.5C 541.5,348.167 541.5,335.833 541.5,323.5C 547.833,323.5 554.167,323.5 560.5,323.5C 560.5,354.5 560.5,385.5 560.5,416.5C 554.167,416.5 547.833,416.5 541.5,416.5 Z"/></g>
<g><path style="opacity:1" fill="#fbfdfc" d="M 377.5,323.5 C 377.5,354.5 377.5,385.5 377.5,416.5C 371.167,416.5 364.833,416.5 358.5,416.5C 358.667,398.164 358.5,379.83 358,361.5C 357.283,362.044 356.783,362.711 356.5,363.5C 337.371,380.125 318.371,396.959 299.5,414C 297.559,415.903 295.226,416.736 292.5,416.5C 292.5,385.833 292.5,355.167 292.5,324.5C 298.5,324.5 304.5,324.5 310.5,324.5C 310.167,342.512 310.5,360.512 311.5,378.5C 312.107,378.376 312.44,378.043 312.5,377.5C 312.833,376.833 313.167,376.167 313.5,375.5C 333.591,358.915 353.258,341.748 372.5,324C 374.134,323.506 375.801,323.34 377.5,323.5 Z"/></g>
<g><path style="opacity:1" fill="#fbfdfc" d="M 599.5,324.5 C 599.5,333.167 599.5,341.833 599.5,350.5C 608.173,350.334 616.84,350.5 625.5,351C 643.327,354.658 653.327,365.492 655.5,383.5C 653.688,402.642 643.355,413.642 624.5,416.5C 609.833,416.5 595.167,416.5 580.5,416.5C 580.5,385.833 580.5,355.167 580.5,324.5C 586.833,324.5 593.167,324.5 599.5,324.5 Z"/></g>
<g><path style="opacity:1" fill="#98aca5" d="M 377.5,323.5 C 378.498,354.662 378.832,385.996 378.5,417.5C 371.646,417.824 364.979,417.491 358.5,416.5C 364.833,416.5 371.167,416.5 377.5,416.5C 377.5,385.5 377.5,354.5 377.5,323.5 Z"/></g>
<g><path style="opacity:1" fill="#b8d2c8" d="M 599.5,324.5 C 593.167,324.5 586.833,324.5 580.5,324.5C 580.5,355.167 580.5,385.833 580.5,416.5C 595.167,416.5 609.833,416.5 624.5,416.5C 609.676,417.496 594.676,417.829 579.5,417.5C 579.5,386.167 579.5,354.833 579.5,323.5C 586.354,323.176 593.021,323.509 599.5,324.5 Z"/></g>
<g><path style="opacity:1" fill="#bfd7ce" d="M 495.5,324.5 C 489.167,324.5 482.833,324.5 476.5,324.5C 476.5,355.167 476.5,385.833 476.5,416.5C 482.833,416.5 489.167,416.5 495.5,416.5C 489.021,417.491 482.354,417.824 475.5,417.5C 475.5,386.167 475.5,354.833 475.5,323.5C 482.354,323.176 489.021,323.509 495.5,324.5 Z"/></g>
<g><path style="opacity:1" fill="#dbeee6" d="M 311.5,323.5 C 311.17,341.674 311.503,359.674 312.5,377.5C 312.44,378.043 312.107,378.376 311.5,378.5C 310.5,360.512 310.167,342.512 310.5,324.5C 304.5,324.5 298.5,324.5 292.5,324.5C 292.5,355.167 292.5,385.833 292.5,416.5C 291.502,385.671 291.169,354.671 291.5,323.5C 298.167,323.5 304.833,323.5 311.5,323.5 Z"/></g>
<g><path style="opacity:1" fill="#083124" d="M 311.5,323.5 C 312.167,340.833 312.833,358.167 313.5,375.5C 313.167,376.167 312.833,376.833 312.5,377.5C 311.503,359.674 311.17,341.674 311.5,323.5 Z"/></g>
<g><path style="opacity:1" fill="#3b5d51" d="M 628.5,372.5 C 627.078,372.291 625.745,371.791 624.5,371C 616.507,370.5 608.507,370.334 600.5,370.5C 600.5,379.833 600.5,389.167 600.5,398.5C 599.506,389.014 599.173,379.348 599.5,369.5C 608.173,369.334 616.84,369.5 625.5,370C 626.942,370.377 627.942,371.21 628.5,372.5 Z"/></g>
<g><path style="opacity:1" fill="#114f3a" d="M 628.5,372.5 C 635.382,376.353 637.215,382.02 634,389.5C 631.774,393.868 628.274,396.702 623.5,398C 615.841,398.5 608.174,398.666 600.5,398.5C 600.5,389.167 600.5,379.833 600.5,370.5C 608.507,370.334 616.507,370.5 624.5,371C 625.745,371.791 627.078,372.291 628.5,372.5 Z"/></g>
<g><path style="opacity:1" fill="#c1d6cd" d="M 222.5,357.5 C 221.503,377.326 221.17,397.326 221.5,417.5C 214.646,417.824 207.979,417.491 201.5,416.5C 207.758,416.81 213.924,416.476 220,415.5C 220.167,395.825 220.667,376.158 221.5,356.5C 222.107,356.624 222.44,356.957 222.5,357.5 Z"/></g>
<g><path style="opacity:1" fill="#395f53" d="M 495.5,379.5 C 510.658,378.504 525.991,378.17 541.5,378.5C 541.5,391.167 541.5,403.833 541.5,416.5C 540.505,404.345 540.171,392.011 540.5,379.5C 525.5,379.5 510.5,379.5 495.5,379.5 Z"/></g>
<g><path style="opacity:1" fill="#4a7364" d="M 358.5,416.5 C 357.833,398.833 357.167,381.167 356.5,363.5C 356.783,362.711 357.283,362.044 358,361.5C 358.5,379.83 358.667,398.164 358.5,416.5 Z"/></g>
<g><path style="opacity:1" fill="#73968a" d="M 135.5,415.5 C 142.648,416.492 149.981,416.825 157.5,416.5C 149.99,417.82 142.323,417.82 134.5,416.5C 134.624,415.893 134.957,415.56 135.5,415.5 Z"/></g>
<g><path style="opacity:1" fill="#74968b" d="M 287.5,415.5 C 288.043,415.56 288.376,415.893 288.5,416.5C 280.677,417.82 273.01,417.82 265.5,416.5C 273.019,416.825 280.352,416.492 287.5,415.5 Z"/></g>
<g><path style="opacity:1" fill="#fafdfc" d="M 389.5,436.5 C 395.833,436.5 402.167,436.5 408.5,436.5C 408.5,467.167 408.5,497.833 408.5,528.5C 402.167,528.5 395.833,528.5 389.5,528.5C 389.808,526.076 389.474,523.743 388.5,521.5C 377.551,530.835 364.884,534.335 350.5,532C 330.002,528.165 316.502,516.332 310,496.5C 304.56,462.626 318.393,441.459 351.5,433C 365.856,431.009 378.356,434.842 389,444.5C 389.497,441.854 389.664,439.187 389.5,436.5 Z"/></g>
<g><path style="opacity:1" fill="#fafdfc" d="M 449.5,522.5 C 449.44,521.957 449.107,521.624 448.5,521.5C 447.5,539.154 447.167,556.821 447.5,574.5C 441.167,574.5 434.833,574.5 428.5,574.5C 428.5,528.5 428.5,482.5 428.5,436.5C 434.833,436.5 441.167,436.5 447.5,436.5C 447.336,439.187 447.503,441.854 448,444.5C 458.695,435.031 471.195,431.198 485.5,433C 506.144,436.985 519.978,448.818 527,468.5C 532.632,493.97 524.466,513.47 502.5,527C 483.749,535.616 466.083,534.116 449.5,522.5 Z"/></g>
<g><path style="opacity:1" fill="#f9fcfb" d="M 303.5,524.5 C 303.5,525.833 303.5,527.167 303.5,528.5C 296.879,529.06 290.545,528.393 284.5,526.5C 282.312,511.414 279.645,496.414 276.5,481.5C 267.082,496.668 257.915,512.001 249,527.5C 246.582,529.68 243.916,530.013 241,528.5C 231.918,512.668 222.585,497.001 213,481.5C 209.759,497.103 206.925,512.77 204.5,528.5C 197.978,528.823 191.645,528.49 185.5,527.5C 190.676,497.131 196.009,466.798 201.5,436.5C 203.792,436.244 205.959,436.577 208,437.5C 219.937,457.765 232.27,477.765 245,497.5C 257.333,477.167 269.667,456.833 282,436.5C 283.814,435.24 285.647,435.24 287.5,436.5C 293.111,465.773 298.444,495.107 303.5,524.5 Z"/></g>
<g><path style="opacity:1" fill="#f9fbfb" d="M 580.5,454.5 C 579.502,478.994 579.169,503.661 579.5,528.5C 573.167,528.5 566.833,528.5 560.5,528.5C 560.5,503.833 560.5,479.167 560.5,454.5C 549.5,454.5 538.5,454.5 527.5,454.5C 527.5,448.167 527.5,441.833 527.5,435.5C 555.833,435.5 584.167,435.5 612.5,435.5C 612.5,441.833 612.5,448.167 612.5,454.5C 601.833,454.5 591.167,454.5 580.5,454.5 Z"/></g>
<g><path style="opacity:1" fill="#a1c1b6" d="M 389.5,436.5 C 395.979,435.509 402.646,435.176 409.5,435.5C 409.5,466.833 409.5,498.167 409.5,529.5C 402.646,529.824 395.979,529.491 389.5,528.5C 395.833,528.5 402.167,528.5 408.5,528.5C 408.5,497.833 408.5,467.167 408.5,436.5C 402.167,436.5 395.833,436.5 389.5,436.5 Z"/></g>
<g><path style="opacity:1" fill="#dbede6" d="M 632.5,433.5 C 644.382,433.213 649.216,438.88 647,450.5C 643.223,456.043 638.056,457.877 631.5,456C 621.937,448.094 622.27,440.594 632.5,433.5 Z"/></g>
<g><path style="opacity:1" fill="#1b4635" d="M 642.5,451.5 C 638.416,455.29 634.082,455.456 629.5,452C 624.866,445.838 625.866,440.838 632.5,437C 641.834,435.337 646.001,439.17 645,448.5C 644.623,449.942 643.79,450.942 642.5,451.5 Z"/></g>
<g><path style="opacity:1" fill="#e4f7f0" d="M 642.5,451.5 C 641.127,451.657 639.793,451.49 638.5,451C 635.577,445.161 634.243,445.327 634.5,451.5C 633.5,451.5 632.5,451.5 631.5,451.5C 631.5,447.167 631.5,442.833 631.5,438.5C 634.93,438.107 638.096,438.773 641,440.5C 641.682,442.938 641.182,445.105 639.5,447C 640.315,448.643 641.315,450.143 642.5,451.5 Z"/></g>
<g><path style="opacity:1" fill="#204635" d="M 634.5,440.5 C 637.5,440.167 638.833,441.5 638.5,444.5C 637.167,444.5 635.833,444.5 634.5,444.5C 634.5,443.167 634.5,441.833 634.5,440.5 Z"/></g>
<g><path style="opacity:1" fill="#7e9f94" d="M 447.5,436.5 C 441.167,436.5 434.833,436.5 428.5,436.5C 428.5,482.5 428.5,528.5 428.5,574.5C 427.501,528.336 427.168,482.003 427.5,435.5C 434.354,435.176 441.021,435.509 447.5,436.5 Z"/></g>
<g><path style="opacity:1" fill="#104f3b" d="M 471.5,451.5 C 498.005,451.17 510.172,464.17 508,490.5C 501.648,508.816 488.814,516.316 469.5,513C 452.35,505.876 445.183,493.043 448,474.5C 451.787,462.544 459.621,454.878 471.5,451.5 Z"/></g>
<g><path style="opacity:1" fill="#104f3b" d="M 351.5,451.5 C 380.274,451.106 392.441,465.106 388,493.5C 380.617,509.64 368.117,516.14 350.5,513C 333.01,505.523 325.843,492.357 329,473.5C 333.109,462.557 340.609,455.223 351.5,451.5 Z"/></g>
<g><path style="opacity:1" fill="#b9d3ca" d="M 580.5,454.5 C 580.5,479.5 580.5,504.5 580.5,529.5C 573.646,529.824 566.979,529.491 560.5,528.5C 566.833,528.5 573.167,528.5 579.5,528.5C 579.169,503.661 579.502,478.994 580.5,454.5 Z"/></g>
<g><path style="opacity:1" fill="#aec8bf" d="M 185.5,527.5 C 191.645,528.49 197.978,528.823 204.5,528.5C 197.989,529.818 191.322,529.818 184.5,528.5C 184.624,527.893 184.957,527.56 185.5,527.5 Z"/></g>
<g><path style="opacity:1" fill="#abc6bd" d="M 303.5,524.5 C 304.451,525.919 304.784,527.585 304.5,529.5C 297.833,529.5 291.167,529.5 284.5,529.5C 284.5,528.5 284.5,527.5 284.5,526.5C 290.545,528.393 296.879,529.06 303.5,528.5C 303.5,527.167 303.5,525.833 303.5,524.5 Z"/></g>
<g><path style="opacity:1" fill="#48695e" d="M 449.5,522.5 C 448.833,539.833 448.167,557.167 447.5,574.5C 447.167,556.821 447.5,539.154 448.5,521.5C 449.107,521.624 449.44,521.957 449.5,522.5 Z"/></g>
</svg>
